{
  "source": "C:\\Users\\Peter\\Desktop\\stuff\\MIUN\\quantitative_research\\video_compression\\videos\\BVI-HD\\BVI-HD_CDVL_videos\\ORIG\\CloudsZoom_1920x1080_60fps.mp4",
  "output": "C:\\Users\\Peter\\Desktop\\stuff\\MIUN\\quantitative_research\\video_compression\\compressed_videos\\BVI-HD\\hevc\\4\\CloudsZoom_1920x1080_60fps_hevc.mp4",
  "codec": "hevc",
  "ok": "Input #0, mov,mp4,m4a,3gp,3g2,mj2, from 'C:\\Users\\Peter\\Desktop\\stuff\\MIUN\\quantitative_research\\video_compression\\videos\\BVI-HD\\BVI-HD_CDVL_videos\\ORIG\\CloudsZoom_1920x1080_60fps.mp4':\n  Metadata:\n    major_brand     : isom\n    minor_version   : 512\n    compatible_brands: isomiso2avc1mp41\n    encoder         : Lavf54.28.101\n  Duration: 00:00:05.00, start: 0.000000, bitrate: 32589 kb/s\n  Stream #0:0[0x1](und): Video: h264 (High 4:4:4 Predictive) (avc1 / 0x31637661), yuv420p(progressive), 1920x1080, 32586 kb/s, 60 fps, 60 tbr, 60 tbn (default)\n    Metadata:\n      handler_name    : VideoHandler\n      vendor_id       : [0][0][0][0]\n[out#0/mp4 @ 000001f385c3aac0] Codec AVOption b:a (set bitrate (in bits/s)) has not been used for any stream. The most likely reason is either wrong type (e.g. a video option with no video streams) or that it is a private option of some decoder which was not actually used for any stream.\nStream mapping:\n  Stream #0:0 -> #0:0 (h264 (native) -> hevc (libx265))\nPress [q] to stop, [?] for help\n[libx265 @ 000001f3864100c0] Unknown option: \"aq-mode.\nx265 [info]: HEVC encoder version 4.1+190-8f11c33ac\nx265 [info]: build info [Windows][GCC 15.1.0][64 bit] 10bit\nx265 [info]: using cpu capabilities: MMX2 SSE2Fast LZCNT SSSE3 SSE4.2 AVX FMA3 BMI2 AVX2\nx265 [info]: Main 10 profile, Level-4.1 (Main tier)\nx265 [info]: Thread pool created using 12 threads\nx265 [info]: Slices                              : 1\nx265 [info]: frame threads / pool features       : 3 / wpp(17 rows)\nx265 [info]: Coding QT: max CU size, min CU size : 64 / 8\nx265 [info]: Residual QT: max TU size, max depth : 32 / 1 inter / 1 intra\nx265 [info]: ME / range / subpel / merge         : star / 57 / 3 / 3\nx265 [info]: Keyframe min / max / scenecut / bias  : 25 / 250 / 40 / 5.00 \nx265 [info]: Lookahead / bframes / badapt        : 25 / 4 / 2\nx265 [info]: b-pyramid / weightp / weightb       : 1 / 1 / 0\nx265 [info]: References / ref-limit  cu / depth  : 4 / on / on\nx265 [info]: AQ: mode / str / qg-size / cu-tree  : 2 / 1.0 / 32 / 1\nx265 [info]: Rate Control / qCompress            : ABR-4000 kbps / 0.60\nx265 [info]: VBV/HRD buffer / max-rate / init    : 4000 / 4000 / 0.750\nx265 [info]: tools: rect limit-modes rd=4 psy-rd=2.00 rdoq=2 psy-rdoq=1.00\nx265 [info]: tools: rskip mode=1 signhide tmvp strong-intra-smoothing lslices=4\nx265 [info]: tools: deblock sao dhdr10-info\nOutput #0, mp4, to 'C:\\Users\\Peter\\Desktop\\stuff\\MIUN\\quantitative_research\\video_compression\\compressed_videos\\BVI-HD\\hevc\\4\\CloudsZoom_1920x1080_60fps_hevc.mp4':\n  Metadata:\n    major_brand     : isom\n    minor_version   : 512\n    compatible_brands: isomiso2avc1mp41\n    encoder         : Lavf62.3.100\n  Stream #0:0(und): Video: hevc (hev1 / 0x31766568), yuv420p10le(tv, progressive), 1920x1080, q=2-31, 4000 kb/s, 60 fps, 15360 tbn (default)\n    Metadata:\n      encoder         : Lavc62.11.100 libx265\n      handler_name    : VideoHandler\n      vendor_id       : [0][0][0][0]\n    Side data:\n      cpb: bitrate max/min/avg: 4000000/0/4000000 buffer size: 4000000 vbv_delay: N/A\nframe=    0 fps=0.0 q=0.0 size=       0KiB time=N/A bitrate=N/A speed=N/A elapsed=0:00:00.50    \nframe=    0 fps=0.0 q=0.0 size=       0KiB time=N/A bitrate=N/A speed=N/A elapsed=0:00:01.11    \nframe=    0 fps=0.0 q=0.0 size=       0KiB time=N/A bitrate=N/A speed=N/A elapsed=0:00:01.63    \nframe=    0 fps=0.0 q=0.0 size=       0KiB time=N/A bitrate=N/A speed=N/A elapsed=0:00:02.16    \nframe=    0 fps=0.0 q=0.0 size=       0KiB time=N/A bitrate=N/A speed=N/A elapsed=0:00:02.68    \nframe=    0 fps=0.0 q=0.0 size=       0KiB time=N/A bitrate=N/A speed=N/A elapsed=0:00:03.18    \nframe=    0 fps=0.0 q=0.0 size=       0KiB time=N/A bitrate=N/A speed=N/A elapsed=0:00:03.70    \nframe=    0 fps=0.0 q=0.0 size=       0KiB time=N/A bitrate=N/A speed=N/A elapsed=0:00:04.23    \nframe=    0 fps=0.0 q=0.0 size=       0KiB time=N/A bitrate=N/A speed=N/A elapsed=0:00:04.74    \nframe=    0 fps=0.0 q=0.0 size=       0KiB time=N/A bitrate=N/A speed=N/A elapsed=0:00:05.27    \nframe=    0 fps=0.0 q=0.0 size=       0KiB time=N/A bitrate=N/A speed=N/A elapsed=0:00:05.79    \nframe=    0 fps=0.0 q=0.0 size=       0KiB time=N/A bitrate=N/A speed=N/A elapsed=0:00:06.32    \nframe=    0 fps=0.0 q=0.0 size=       0KiB time=N/A bitrate=N/A speed=N/A elapsed=0:00:06.86    \nframe=    1 fps=0.1 q=27.8 size=       0KiB time=-00:00:00.01 bitrate=N/A speed=N/A elapsed=0:00:07.39    \nframe=    1 fps=0.1 q=27.8 size=       0KiB time=-00:00:00.01 bitrate=N/A speed=N/A elapsed=0:00:07.91    \nframe=    2 fps=0.2 q=39.0 size=       0KiB time=00:00:00.00 bitrate=N/A speed=   0x elapsed=0:00:08.45    \nframe=    3 fps=0.3 q=35.0 size=       0KiB time=00:00:00.01 bitrate=  21.1kbits/s speed=0.00186x elapsed=0:00:08.98    \nframe=    4 fps=0.4 q=35.0 size=       0KiB time=00:00:00.03 bitrate=  10.6kbits/s speed=0.00351x elapsed=0:00:09.50    \nframe=    4 fps=0.4 q=35.0 size=       0KiB time=00:00:00.03 bitrate=  10.6kbits/s speed=0.00332x elapsed=0:00:10.03    \nframe=    5 fps=0.5 q=35.0 size=       0KiB time=00:00:00.05 bitrate=   7.0kbits/s speed=0.00472x elapsed=0:00:10.58    \nframe=    6 fps=0.5 q=35.0 size=       0KiB time=00:00:00.06 bitrate=   5.3kbits/s speed=0.006x elapsed=0:00:11.11    \nframe=    6 fps=0.5 q=35.0 size=       0KiB time=00:00:00.06 bitrate=   5.3kbits/s speed=0.00573x elapsed=0:00:11.63    \nframe=    6 fps=0.5 q=35.0 size=       0KiB time=00:00:00.06 bitrate=   5.3kbits/s speed=0.00549x elapsed=0:00:12.15    \nframe=    6 fps=0.5 q=35.0 size=       0KiB time=00:00:00.06 bitrate=   5.3kbits/s speed=0.00526x elapsed=0:00:12.68    \nframe=    7 fps=0.5 q=27.8 size=       0KiB time=00:00:00.08 bitrate=   4.2kbits/s speed=0.00632x elapsed=0:00:13.19    \nframe=    8 fps=0.6 q=30.7 size=       0KiB time=00:00:00.10 bitrate=   3.5kbits/s speed=0.00728x elapsed=0:00:13.74    \nframe=    8 fps=0.6 q=30.7 size=       0KiB time=00:00:00.10 bitrate=   3.5kbits/s speed=0.00702x elapsed=0:00:14.25    \nframe=    8 fps=0.5 q=30.7 size=       0KiB time=00:00:00.10 bitrate=   3.5kbits/s speed=0.00677x elapsed=0:00:14.77    \nframe=    9 fps=0.6 q=31.7 size=       0KiB time=00:00:00.11 bitrate=   3.0kbits/s speed=0.00763x elapsed=0:00:15.29    \nframe=    9 fps=0.6 q=31.7 size=       0KiB time=00:00:00.11 bitrate=   3.0kbits/s speed=0.00737x elapsed=0:00:15.82    \nframe=    9 fps=0.6 q=31.7 size=       0KiB time=00:00:00.11 bitrate=   3.0kbits/s speed=0.00713x elapsed=0:00:16.35    \nframe=    9 fps=0.5 q=31.7 size=       0KiB time=00:00:00.11 bitrate=   3.0kbits/s speed=0.00691x elapsed=0:00:16.88    \nframe=   10 fps=0.6 q=27.4 size=       0KiB time=00:00:00.13 bitrate=   2.6kbits/s speed=0.00765x elapsed=0:00:17.43    \nframe=   10 fps=0.6 q=27.4 size=       0KiB time=00:00:00.13 bitrate=   2.6kbits/s speed=0.00741x elapsed=0:00:17.99    \nframe=   10 fps=0.5 q=27.4 size=       0KiB time=00:00:00.13 bitrate=   2.6kbits/s speed=0.00719x elapsed=0:00:18.54    \nframe=   11 fps=0.6 q=27.3 size=       0KiB time=00:00:00.15 bitrate=   2.3kbits/s speed=0.00785x elapsed=0:00:19.09    \nframe=   12 fps=0.6 q=21.4 size=       0KiB time=00:00:00.16 bitrate=   2.1kbits/s speed=0.00848x elapsed=0:00:19.66    \nframe=   12 fps=0.6 q=21.4 size=       0KiB time=00:00:00.16 bitrate=   2.1kbits/s speed=0.00825x elapsed=0:00:20.19    \nframe=   12 fps=0.6 q=21.4 size=       0KiB time=00:00:00.16 bitrate=   2.1kbits/s speed=0.00803x elapsed=0:00:20.76    \nframe=   12 fps=0.6 q=21.4 size=       0KiB time=00:00:00.16 bitrate=   2.1kbits/s speed=0.00782x elapsed=0:00:21.31    \nframe=   13 fps=0.6 q=24.5 size=       0KiB time=00:00:00.18 bitrate=   1.9kbits/s speed=0.00839x elapsed=0:00:21.84    \nframe=   13 fps=0.6 q=24.5 size=       0KiB time=00:00:00.18 bitrate=   1.9kbits/s speed=0.00819x elapsed=0:00:22.38    \nframe=   13 fps=0.6 q=24.5 size=       0KiB time=00:00:00.18 bitrate=   1.9kbits/s speed=0.00801x elapsed=0:00:22.89    \nframe=   14 fps=0.6 q=26.1 size=       0KiB time=00:00:00.20 bitrate=   1.8kbits/s speed=0.00853x elapsed=0:00:23.43    \nframe=   14 fps=0.6 q=26.1 size=       0KiB time=00:00:00.20 bitrate=   1.8kbits/s speed=0.00833x elapsed=0:00:24.00    \nframe=   14 fps=0.6 q=26.1 size=       0KiB time=00:00:00.20 bitrate=   1.8kbits/s speed=0.00815x elapsed=0:00:24.53    \nframe=   14 fps=0.6 q=26.1 size=       0KiB time=00:00:00.20 bitrate=   1.8kbits/s speed=0.00797x elapsed=0:00:25.08    \nframe=   14 fps=0.5 q=26.1 size=       0KiB time=00:00:00.20 bitrate=   1.8kbits/s speed=0.00781x elapsed=0:00:25.60    \nframe=   14 fps=0.5 q=26.1 size=       0KiB time=00:00:00.20 bitrate=   1.8kbits/s speed=0.00764x elapsed=0:00:26.16    \nframe=   14 fps=0.5 q=26.1 size=       0KiB time=00:00:00.20 bitrate=   1.8kbits/s speed=0.00748x elapsed=0:00:26.72    \nframe=   15 fps=0.5 q=22.5 size=       0KiB time=00:00:00.21 bitrate=   1.6kbits/s speed=0.00793x elapsed=0:00:27.33    \nframe=   15 fps=0.5 q=22.5 size=       0KiB time=00:00:00.21 bitrate=   1.6kbits/s speed=0.00777x elapsed=0:00:27.87    \nframe=   15 fps=0.5 q=22.5 size=       0KiB time=00:00:00.21 bitrate=   1.6kbits/s speed=0.00763x elapsed=0:00:28.40    \nframe=   16 fps=0.6 q=22.3 size=       0KiB time=00:00:00.23 bitrate=   1.5kbits/s speed=0.00806x elapsed=0:00:28.94    \nframe=   17 fps=0.6 q=17.2 size=       0KiB time=00:00:00.25 bitrate=   1.4kbits/s speed=0.00848x elapsed=0:00:29.47    \nframe=   17 fps=0.6 q=17.2 size=       0KiB time=00:00:00.25 bitrate=   1.4kbits/s speed=0.00833x elapsed=0:00:30.00    \nframe=   18 fps=0.6 q=21.7 size=       0KiB time=00:00:00.26 bitrate=   1.3kbits/s speed=0.00874x elapsed=0:00:30.51    \nframe=   18 fps=0.6 q=21.7 size=       0KiB time=00:00:00.26 bitrate=   1.3kbits/s speed=0.00859x elapsed=0:00:31.03    \nframe=   19 fps=0.6 q=20.8 size=       0KiB time=00:00:00.28 bitrate=   1.2kbits/s speed=0.00897x elapsed=0:00:31.57    \nframe=   19 fps=0.6 q=20.8 size=       0KiB time=00:00:00.28 bitrate=   1.2kbits/s speed=0.00882x elapsed=0:00:32.13    \nframe=   19 fps=0.6 q=20.8 size=       0KiB time=00:00:00.28 bitrate=   1.2kbits/s speed=0.00867x elapsed=0:00:32.67    \nframe=   19 fps=0.6 q=20.8 size=       0KiB time=00:00:00.28 bitrate=   1.2kbits/s speed=0.00853x elapsed=0:00:33.23    \nframe=   19 fps=0.6 q=20.8 size=       0KiB time=00:00:00.28 bitrate=   1.2kbits/s speed=0.0084x elapsed=0:00:33.74    \nframe=   19 fps=0.6 q=20.8 size=       0KiB time=00:00:00.28 bitrate=   1.2kbits/s speed=0.00827x elapsed=0:00:34.27    \nframe=   19 fps=0.5 q=20.8 size=       0KiB time=00:00:00.28 bitrate=   1.2kbits/s speed=0.00814x elapsed=0:00:34.80    \nframe=   20 fps=0.6 q=19.6 size=       0KiB time=00:00:00.30 bitrate=   1.2kbits/s speed=0.00849x elapsed=0:00:35.35    \nframe=   20 fps=0.6 q=19.6 size=       0KiB time=00:00:00.30 bitrate=   1.2kbits/s speed=0.00836x elapsed=0:00:35.89    \nframe=   20 fps=0.5 q=19.6 size=       0KiB time=00:00:00.30 bitrate=   1.2kbits/s speed=0.00823x elapsed=0:00:36.45    \nframe=   20 fps=0.5 q=19.6 size=       0KiB time=00:00:00.30 bitrate=   1.2kbits/s speed=0.00811x elapsed=0:00:37.00    \nframe=   20 fps=0.5 q=19.6 size=       0KiB time=00:00:00.30 bitrate=   1.2kbits/s speed=0.00799x elapsed=0:00:37.56    \nframe=   21 fps=0.6 q=18.5 size=       0KiB time=00:00:00.31 bitrate=   1.1kbits/s speed=0.00831x elapsed=0:00:38.10    \nframe=   21 fps=0.5 q=18.5 size=       0KiB time=00:00:00.31 bitrate=   1.1kbits/s speed=0.0082x elapsed=0:00:38.63    \nframe=   21 fps=0.5 q=18.5 size=       0KiB time=00:00:00.31 bitrate=   1.1kbits/s speed=0.00808x elapsed=0:00:39.18    \nframe=   21 fps=0.5 q=18.5 size=       0KiB time=00:00:00.31 bitrate=   1.1kbits/s speed=0.00797x elapsed=0:00:39.71    \nframe=   22 fps=0.5 q=14.1 size=       0KiB time=00:00:00.33 bitrate=   1.1kbits/s speed=0.00828x elapsed=0:00:40.25    \nframe=   22 fps=0.5 q=14.1 size=       0KiB time=00:00:00.33 bitrate=   1.1kbits/s speed=0.00818x elapsed=0:00:40.77    \nframe=   22 fps=0.5 q=14.1 size=       0KiB time=00:00:00.33 bitrate=   1.1kbits/s speed=0.00807x elapsed=0:00:41.32    \nframe=   22 fps=0.5 q=14.1 size=       0KiB time=00:00:00.33 bitrate=   1.1kbits/s speed=0.00797x elapsed=0:00:41.84    \nframe=   22 fps=0.5 q=14.1 size=       0KiB time=00:00:00.33 bitrate=   1.1kbits/s speed=0.00786x elapsed=0:00:42.42    \nframe=   23 fps=0.5 q=19.5 size=       0KiB time=00:00:00.35 bitrate=   1.0kbits/s speed=0.00815x elapsed=0:00:42.96    \nframe=   23 fps=0.5 q=19.5 size=       0KiB time=00:00:00.35 bitrate=   1.0kbits/s speed=0.00804x elapsed=0:00:43.52    \nframe=   23 fps=0.5 q=19.5 size=       0KiB time=00:00:00.35 bitrate=   1.0kbits/s speed=0.00794x elapsed=0:00:44.08    \nframe=   23 fps=0.5 q=19.5 size=       0KiB time=00:00:00.35 bitrate=   1.0kbits/s speed=0.00784x elapsed=0:00:44.64    \nframe=   23 fps=0.5 q=19.5 size=       0KiB time=00:00:00.35 bitrate=   1.0kbits/s speed=0.00774x elapsed=0:00:45.19    \nframe=   24 fps=0.5 q=18.1 size=       0KiB time=00:00:00.36 bitrate=   1.0kbits/s speed=0.00802x elapsed=0:00:45.71    \nframe=   24 fps=0.5 q=18.1 size=       0KiB time=00:00:00.36 bitrate=   1.0kbits/s speed=0.00793x elapsed=0:00:46.23    \nframe=   24 fps=0.5 q=18.1 size=       0KiB time=00:00:00.36 bitrate=   1.0kbits/s speed=0.00784x elapsed=0:00:46.75    \nframe=   24 fps=0.5 q=18.1 size=       0KiB time=00:00:00.36 bitrate=   1.0kbits/s speed=0.00775x elapsed=0:00:47.30    \nframe=   24 fps=0.5 q=18.1 size=       0KiB time=00:00:00.36 bitrate=   1.0kbits/s speed=0.00766x elapsed=0:00:47.86    \nframe=   24 fps=0.5 q=18.1 size=       0KiB time=00:00:00.36 bitrate=   1.0kbits/s speed=0.00757x elapsed=0:00:48.43    \nframe=   24 fps=0.5 q=18.1 size=       0KiB time=00:00:00.36 bitrate=   1.0kbits/s speed=0.00748x elapsed=0:00:49.01    \nframe=   24 fps=0.5 q=18.1 size=       0KiB time=00:00:00.36 bitrate=   1.0kbits/s speed=0.0074x elapsed=0:00:49.53    \nframe=   24 fps=0.5 q=18.1 size=       0KiB time=00:00:00.36 bitrate=   1.0kbits/s speed=0.00732x elapsed=0:00:50.11    \nframe=   24 fps=0.5 q=18.1 size=       0KiB time=00:00:00.36 bitrate=   1.0kbits/s speed=0.00724x elapsed=0:00:50.63    \nframe=   24 fps=0.5 q=18.1 size=       0KiB time=00:00:00.36 bitrate=   1.0kbits/s speed=0.00716x elapsed=0:00:51.17    \nframe=   24 fps=0.5 q=18.1 size=       0KiB time=00:00:00.36 bitrate=   1.0kbits/s speed=0.00708x elapsed=0:00:51.79    \nframe=   24 fps=0.5 q=18.1 size=       0KiB time=00:00:00.36 bitrate=   1.0kbits/s speed=0.007x elapsed=0:00:52.37    \nframe=   24 fps=0.5 q=18.1 size=       0KiB time=00:00:00.36 bitrate=   1.0kbits/s speed=0.00692x elapsed=0:00:52.97    \nframe=   24 fps=0.4 q=18.1 size=       0KiB time=00:00:00.36 bitrate=   1.0kbits/s speed=0.00685x elapsed=0:00:53.55    \nframe=   25 fps=0.5 q=17.9 size=       0KiB time=00:00:00.38 bitrate=   0.9kbits/s speed=0.00708x elapsed=0:00:54.17    \nframe=   25 fps=0.5 q=17.9 size=       0KiB time=00:00:00.38 bitrate=   0.9kbits/s speed=0.00701x elapsed=0:00:54.68    \nframe=   25 fps=0.5 q=17.9 size=       0KiB time=00:00:00.38 bitrate=   0.9kbits/s speed=0.00694x elapsed=0:00:55.21    \nframe=   25 fps=0.4 q=17.9 size=       0KiB time=00:00:00.38 bitrate=   0.9kbits/s speed=0.00687x elapsed=0:00:55.78    \nframe=   26 fps=0.5 q=17.3 size=       0KiB time=00:00:00.40 bitrate=   0.9kbits/s speed=0.0071x elapsed=0:00:56.31    \nframe=   27 fps=0.5 q=12.9 size=       0KiB time=00:00:00.41 bitrate=   0.8kbits/s speed=0.00733x elapsed=0:00:56.87    \nframe=   27 fps=0.5 q=12.9 size=       0KiB time=00:00:00.41 bitrate=   0.8kbits/s speed=0.00726x elapsed=0:00:57.37    \nframe=   27 fps=0.5 q=12.9 size=       0KiB time=00:00:00.41 bitrate=   0.8kbits/s speed=0.0072x elapsed=0:00:57.90    \nframe=   28 fps=0.5 q=18.0 size=       0KiB time=00:00:00.43 bitrate=   0.8kbits/s speed=0.00741x elapsed=0:00:58.44    \nframe=   28 fps=0.5 q=18.0 size=       0KiB time=00:00:00.43 bitrate=   0.8kbits/s speed=0.00735x elapsed=0:00:58.97    \nframe=   28 fps=0.5 q=18.0 size=       0KiB time=00:00:00.43 bitrate=   0.8kbits/s speed=0.00728x elapsed=0:00:59.51    \nframe=   29 fps=0.5 q=18.1 size=       0KiB time=00:00:00.45 bitrate=   0.8kbits/s speed=0.00749x elapsed=0:01:00.04    \nframe=   29 fps=0.5 q=18.1 size=       0KiB time=00:00:00.45 bitrate=   0.8kbits/s speed=0.00743x elapsed=0:01:00.58    \nframe=   29 fps=0.5 q=18.1 size=       0KiB time=00:00:00.45 bitrate=   0.8kbits/s speed=0.00736x elapsed=0:01:01.10    \nframe=   29 fps=0.5 q=18.1 size=       0KiB time=00:00:00.45 bitrate=   0.8kbits/s speed=0.0073x elapsed=0:01:01.62    \nframe=   29 fps=0.5 q=18.1 size=       0KiB time=00:00:00.45 bitrate=   0.8kbits/s speed=0.00724x elapsed=0:01:02.17    \nframe=   29 fps=0.5 q=18.1 size=       0KiB time=00:00:00.45 bitrate=   0.8kbits/s speed=0.00718x elapsed=0:01:02.70    \nframe=   30 fps=0.5 q=18.4 size=       0KiB time=00:00:00.46 bitrate=   0.8kbits/s speed=0.00738x elapsed=0:01:03.23    \nframe=   31 fps=0.5 q=18.1 size=       0KiB time=00:00:00.48 bitrate=   0.7kbits/s speed=0.00758x elapsed=0:01:03.75    \nframe=   32 fps=0.5 q=12.8 size=       0KiB time=00:00:00.50 bitrate=   0.7kbits/s speed=0.00778x elapsed=0:01:04.28    \nframe=   32 fps=0.5 q=12.8 size=       0KiB time=00:00:00.50 bitrate=   0.7kbits/s speed=0.00772x elapsed=0:01:04.80    \nframe=   32 fps=0.5 q=12.8 size=       0KiB time=00:00:00.50 bitrate=   0.7kbits/s speed=0.00765x elapsed=0:01:05.35    \nframe=   33 fps=0.5 q=18.2 size=       0KiB time=00:00:00.51 bitrate=   0.7kbits/s speed=0.00784x elapsed=0:01:05.89    \nframe=   33 fps=0.5 q=18.2 size=       0KiB time=00:00:00.51 bitrate=   0.7kbits/s speed=0.00777x elapsed=0:01:06.45    \nframe=   34 fps=0.5 q=18.3 size=       0KiB time=00:00:00.53 bitrate=   0.7kbits/s speed=0.00796x elapsed=0:01:06.99    \nframe=   34 fps=0.5 q=18.3 size=       0KiB time=00:00:00.53 bitrate=   0.7kbits/s speed=0.0079x elapsed=0:01:07.53    \nframe=   35 fps=0.5 q=18.0 size=       0KiB time=00:00:00.55 bitrate=   0.6kbits/s speed=0.00808x elapsed=0:01:08.06    \nframe=   35 fps=0.5 q=18.0 size=       0KiB time=00:00:00.55 bitrate=   0.6kbits/s speed=0.00802x elapsed=0:01:08.60    \nframe=   35 fps=0.5 q=18.0 size=       0KiB time=00:00:00.55 bitrate=   0.6kbits/s speed=0.00796x elapsed=0:01:09.12    \nframe=   36 fps=0.5 q=18.6 size=       0KiB time=00:00:00.56 bitrate=   0.6kbits/s speed=0.00814x elapsed=0:01:09.64    \nframe=   37 fps=0.5 q=12.7 size=       0KiB time=00:00:00.58 bitrate=   0.6kbits/s speed=0.00831x elapsed=0:01:10.17    \nframe=   37 fps=0.5 q=12.7 size=       0KiB time=00:00:00.58 bitrate=   0.6kbits/s speed=0.00825x elapsed=0:01:10.68    \nframe=   37 fps=0.5 q=12.7 size=       0KiB time=00:00:00.58 bitrate=   0.6kbits/s speed=0.00819x elapsed=0:01:11.21    \nframe=   38 fps=0.5 q=18.1 size=       0KiB time=00:00:00.60 bitrate=   0.6kbits/s speed=0.00836x elapsed=0:01:11.77    \nframe=   39 fps=0.5 q=18.4 size=       0KiB time=00:00:00.61 bitrate=   0.6kbits/s speed=0.00853x elapsed=0:01:12.29    \nframe=   39 fps=0.5 q=18.4 size=       0KiB time=00:00:00.61 bitrate=   0.6kbits/s speed=0.00847x elapsed=0:01:12.81    \nframe=   39 fps=0.5 q=18.4 size=       0KiB time=00:00:00.61 bitrate=   0.6kbits/s speed=0.00841x elapsed=0:01:13.34    \nframe=   39 fps=0.5 q=18.4 size=       0KiB time=00:00:00.61 bitrate=   0.6kbits/s speed=0.00835x elapsed=0:01:13.88    \nframe=   40 fps=0.5 q=18.2 size=       0KiB time=00:00:00.63 bitrate=   0.6kbits/s speed=0.00851x elapsed=0:01:14.39    \nframe=   41 fps=0.5 q=18.1 size=       0KiB time=00:00:00.65 bitrate=   0.5kbits/s speed=0.00868x elapsed=0:01:14.92    \nframe=   41 fps=0.5 q=18.1 size=       0KiB time=00:00:00.65 bitrate=   0.5kbits/s speed=0.00861x elapsed=0:01:15.45    \nframe=   42 fps=0.6 q=13.0 size=       0KiB time=00:00:00.66 bitrate=   0.5kbits/s speed=0.00877x elapsed=0:01:15.97    \nframe=   43 fps=0.6 q=18.1 size=     256KiB time=00:00:00.68 bitrate=3069.5kbits/s speed=0.00893x elapsed=0:01:16.51    \nframe=   43 fps=0.6 q=18.1 size=     256KiB time=00:00:00.68 bitrate=3069.5kbits/s speed=0.00887x elapsed=0:01:17.04    \nframe=   43 fps=0.6 q=18.1 size=     256KiB time=00:00:00.68 bitrate=3069.5kbits/s speed=0.00881x elapsed=0:01:17.57    \nframe=   44 fps=0.6 q=18.3 size=     256KiB time=00:00:00.70 bitrate=2996.4kbits/s speed=0.00896x elapsed=0:01:18.11    \nframe=   44 fps=0.6 q=18.3 size=     256KiB time=00:00:00.70 bitrate=2996.4kbits/s speed=0.0089x elapsed=0:01:18.63    \nframe=   45 fps=0.6 q=17.9 size=     256KiB time=00:00:00.71 bitrate=2926.7kbits/s speed=0.00905x elapsed=0:01:19.15    \nframe=   45 fps=0.6 q=17.9 size=     256KiB time=00:00:00.71 bitrate=2926.7kbits/s speed=0.009x elapsed=0:01:19.67    \nframe=   47 fps=0.6 q=13.2 size=     256KiB time=00:00:00.75 bitrate=2796.7kbits/s speed=0.00935x elapsed=0:01:20.19    \nframe=   48 fps=0.6 q=17.8 size=     256KiB time=00:00:00.76 bitrate=2735.9kbits/s speed=0.0095x elapsed=0:01:20.72    \nframe=   49 fps=0.6 q=18.4 size=     256KiB time=00:00:00.78 bitrate=2677.7kbits/s speed=0.00964x elapsed=0:01:21.25    \nframe=   49 fps=0.6 q=18.4 size=     256KiB time=00:00:00.78 bitrate=2677.7kbits/s speed=0.00958x elapsed=0:01:21.79    \nframe=   49 fps=0.6 q=18.4 size=     256KiB time=00:00:00.78 bitrate=2677.7kbits/s speed=0.00952x elapsed=0:01:22.29    \nframe=   49 fps=0.6 q=18.4 size=     256KiB time=00:00:00.78 bitrate=2677.7kbits/s speed=0.00946x elapsed=0:01:22.81    \nframe=   49 fps=0.6 q=18.4 size=     256KiB time=00:00:00.78 bitrate=2677.7kbits/s speed=0.0094x elapsed=0:01:23.36    \nframe=   49 fps=0.6 q=18.4 size=     256KiB time=00:00:00.78 bitrate=2677.7kbits/s speed=0.00934x elapsed=0:01:23.89    \nframe=   49 fps=0.6 q=18.4 size=     256KiB time=00:00:00.78 bitrate=2677.7kbits/s speed=0.00928x elapsed=0:01:24.41    \nframe=   50 fps=0.6 q=17.9 size=     256KiB time=00:00:00.80 bitrate=2621.9kbits/s speed=0.00942x elapsed=0:01:24.93    \nframe=   51 fps=0.6 q=17.7 size=     256KiB time=00:00:00.81 bitrate=2568.4kbits/s speed=0.00956x elapsed=0:01:25.45    \nframe=   52 fps=0.6 q=11.9 size=     256KiB time=00:00:00.83 bitrate=2517.0kbits/s speed=0.00969x elapsed=0:01:25.97    \nframe=   53 fps=0.6 q=17.7 size=     256KiB time=00:00:00.85 bitrate=2467.7kbits/s speed=0.00983x elapsed=0:01:26.50    \nframe=   54 fps=0.6 q=18.4 size=     256KiB time=00:00:00.86 bitrate=2420.2kbits/s speed=0.00996x elapsed=0:01:27.04    \nframe=   54 fps=0.6 q=18.4 size=     256KiB time=00:00:00.86 bitrate=2420.2kbits/s speed=0.0099x elapsed=0:01:27.56    \nframe=   54 fps=0.6 q=18.4 size=     256KiB time=00:00:00.86 bitrate=2420.2kbits/s speed=0.00984x elapsed=0:01:28.08    \nframe=   55 fps=0.6 q=18.0 size=     256KiB time=00:00:00.88 bitrate=2374.5kbits/s speed=0.00997x elapsed=0:01:28.61    \nframe=   55 fps=0.6 q=18.0 size=     256KiB time=00:00:00.88 bitrate=2374.5kbits/s speed=0.00991x elapsed=0:01:29.13    \nframe=   56 fps=0.6 q=18.2 size=     256KiB time=00:00:00.90 bitrate=2330.6kbits/s speed=0.01x elapsed=0:01:29.65    \nframe=   56 fps=0.6 q=18.2 size=     256KiB time=00:00:00.90 bitrate=2330.6kbits/s speed=0.00998x elapsed=0:01:30.18    \nframe=   57 fps=0.6 q=12.5 size=     256KiB time=00:00:00.91 bitrate=2288.2kbits/s speed=0.0101x elapsed=0:01:30.72    \nframe=   58 fps=0.6 q=17.3 size=     256KiB time=00:00:00.93 bitrate=2247.3kbits/s speed=0.0102x elapsed=0:01:31.25    \nframe=   59 fps=0.6 q=18.7 size=     256KiB time=00:00:00.95 bitrate=2207.9kbits/s speed=0.0104x elapsed=0:01:31.77    \nframe=   59 fps=0.6 q=18.7 size=     256KiB time=00:00:00.95 bitrate=2207.9kbits/s speed=0.0103x elapsed=0:01:32.31    \nframe=   60 fps=0.6 q=18.6 size=     256KiB time=00:00:00.96 bitrate=2169.8kbits/s speed=0.0104x elapsed=0:01:32.83    \nframe=   60 fps=0.6 q=18.6 size=     256KiB time=00:00:00.96 bitrate=2169.8kbits/s speed=0.0104x elapsed=0:01:33.38    \nframe=   60 fps=0.6 q=18.6 size=     256KiB time=00:00:00.96 bitrate=2169.8kbits/s speed=0.0103x elapsed=0:01:33.89    \nframe=   60 fps=0.6 q=18.6 size=     256KiB time=00:00:00.96 bitrate=2169.8kbits/s speed=0.0102x elapsed=0:01:34.42    \nframe=   61 fps=0.6 q=18.6 size=     256KiB time=00:00:00.98 bitrate=2133.1kbits/s speed=0.0104x elapsed=0:01:34.94    \nframe=   61 fps=0.6 q=18.6 size=     256KiB time=00:00:00.98 bitrate=2133.1kbits/s speed=0.0103x elapsed=0:01:35.46    \nframe=   61 fps=0.6 q=18.6 size=     256KiB time=00:00:00.98 bitrate=2133.1kbits/s speed=0.0102x elapsed=0:01:36.01    \nframe=   62 fps=0.6 q=12.5 size=     256KiB time=00:00:01.00 bitrate=2097.5kbits/s speed=0.0104x elapsed=0:01:36.54    \nframe=   62 fps=0.6 q=12.5 size=     256KiB time=00:00:01.00 bitrate=2097.5kbits/s speed=0.0103x elapsed=0:01:37.07    \nframe=   64 fps=0.7 q=18.6 size=     256KiB time=00:00:01.03 bitrate=2029.8kbits/s speed=0.0106x elapsed=0:01:37.61    \nframe=   64 fps=0.7 q=18.6 size=     256KiB time=00:00:01.03 bitrate=2029.8kbits/s speed=0.0105x elapsed=0:01:38.15    \nframe=   64 fps=0.6 q=18.6 size=     256KiB time=00:00:01.03 bitrate=2029.8kbits/s speed=0.0105x elapsed=0:01:38.69    \nframe=   64 fps=0.6 q=18.6 size=     256KiB time=00:00:01.03 bitrate=2029.8kbits/s speed=0.0104x elapsed=0:01:39.20    \nframe=   64 fps=0.6 q=18.6 size=     256KiB time=00:00:01.03 bitrate=2029.8kbits/s speed=0.0104x elapsed=0:01:39.73    \nframe=   64 fps=0.6 q=18.6 size=     256KiB time=00:00:01.03 bitrate=2029.8kbits/s speed=0.0103x elapsed=0:01:40.29    \nframe=   65 fps=0.6 q=18.9 size=     256KiB time=00:00:01.05 bitrate=1997.6kbits/s speed=0.0104x elapsed=0:01:40.84    \nframe=   65 fps=0.6 q=18.9 size=     256KiB time=00:00:01.05 bitrate=1997.6kbits/s speed=0.0104x elapsed=0:01:41.37    \nframe=   65 fps=0.6 q=18.9 size=     256KiB time=00:00:01.05 bitrate=1997.6kbits/s speed=0.0103x elapsed=0:01:41.89    \nframe=   65 fps=0.6 q=18.9 size=     256KiB time=00:00:01.05 bitrate=1997.6kbits/s speed=0.0102x elapsed=0:01:42.44    \nframe=   65 fps=0.6 q=18.9 size=     256KiB time=00:00:01.05 bitrate=1997.6kbits/s speed=0.0102x elapsed=0:01:42.99    \nframe=   66 fps=0.6 q=18.3 size=     256KiB time=00:00:01.06 bitrate=1966.4kbits/s speed=0.0103x elapsed=0:01:43.49    \nframe=   66 fps=0.6 q=18.3 size=     256KiB time=00:00:01.06 bitrate=1966.4kbits/s speed=0.0103x elapsed=0:01:44.04    \nframe=   66 fps=0.6 q=18.3 size=     256KiB time=00:00:01.06 bitrate=1966.4kbits/s speed=0.0102x elapsed=0:01:44.61    \nframe=   67 fps=0.6 q=12.9 size=     256KiB time=00:00:01.08 bitrate=1936.2kbits/s speed=0.0103x elapsed=0:01:45.13    \nframe=   67 fps=0.6 q=12.9 size=     256KiB time=00:00:01.08 bitrate=1936.2kbits/s speed=0.0102x elapsed=0:01:45.72    \nframe=   69 fps=0.6 q=18.7 size=     256KiB time=00:00:01.11 bitrate=1878.4kbits/s speed=0.0105x elapsed=0:01:46.26    \nframe=   69 fps=0.6 q=18.7 size=     256KiB time=00:00:01.11 bitrate=1878.4kbits/s speed=0.0105x elapsed=0:01:46.81    \nframe=   69 fps=0.6 q=18.7 size=     256KiB time=00:00:01.11 bitrate=1878.4kbits/s speed=0.0104x elapsed=0:01:47.36    \nframe=   69 fps=0.6 q=18.7 size=     256KiB time=00:00:01.11 bitrate=1878.4kbits/s speed=0.0103x elapsed=0:01:47.93    \nframe=   69 fps=0.6 q=18.7 size=     256KiB time=00:00:01.11 bitrate=1878.4kbits/s speed=0.0103x elapsed=0:01:48.55    \nframe=   69 fps=0.6 q=18.7 size=     256KiB time=00:00:01.11 bitrate=1878.4kbits/s speed=0.0102x elapsed=0:01:49.16    \nframe=   69 fps=0.6 q=18.7 size=     256KiB time=00:00:01.11 bitrate=1878.4kbits/s speed=0.0102x elapsed=0:01:49.76    \nframe=   69 fps=0.6 q=18.7 size=     256KiB time=00:00:01.11 bitrate=1878.4kbits/s speed=0.0101x elapsed=0:01:50.30    \nframe=   70 fps=0.6 q=18.5 size=     256KiB time=00:00:01.13 bitrate=1850.7kbits/s speed=0.0102x elapsed=0:01:50.82    \nframe=   70 fps=0.6 q=18.5 size=     256KiB time=00:00:01.13 bitrate=1850.7kbits/s speed=0.0102x elapsed=0:01:51.37    \nframe=   70 fps=0.6 q=18.5 size=     256KiB time=00:00:01.13 bitrate=1850.7kbits/s speed=0.0101x elapsed=0:01:51.95    \nframe=   70 fps=0.6 q=18.5 size=     256KiB time=00:00:01.13 bitrate=1850.7kbits/s speed=0.0101x elapsed=0:01:52.56    \nframe=   71 fps=0.6 q=18.6 size=     256KiB time=00:00:01.15 bitrate=1823.9kbits/s speed=0.0102x elapsed=0:01:53.09    \nframe=   71 fps=0.6 q=18.6 size=     256KiB time=00:00:01.15 bitrate=1823.9kbits/s speed=0.0101x elapsed=0:01:53.61    \nframe=   72 fps=0.6 q=12.8 size=     256KiB time=00:00:01.16 bitrate=1797.9kbits/s speed=0.0102x elapsed=0:01:54.13    \nframe=   72 fps=0.6 q=12.8 size=     256KiB time=00:00:01.16 bitrate=1797.9kbits/s speed=0.0102x elapsed=0:01:54.66    \nframe=   72 fps=0.6 q=12.8 size=     256KiB time=00:00:01.16 bitrate=1797.9kbits/s speed=0.0101x elapsed=0:01:55.22    \nframe=   73 fps=0.6 q=17.5 size=     512KiB time=00:00:01.18 bitrate=3544.8kbits/s speed=0.0102x elapsed=0:01:55.75    \nframe=   74 fps=0.6 q=18.8 size=     512KiB time=00:00:01.20 bitrate=3495.5kbits/s speed=0.0103x elapsed=0:01:56.27    \nframe=   74 fps=0.6 q=18.8 size=     512KiB time=00:00:01.20 bitrate=3495.5kbits/s speed=0.0103x elapsed=0:01:56.82    \nframe=   74 fps=0.6 q=18.8 size=     512KiB time=00:00:01.20 bitrate=3495.5kbits/s speed=0.0102x elapsed=0:01:57.34    \nframe=   74 fps=0.6 q=18.8 size=     512KiB time=00:00:01.20 bitrate=3495.5kbits/s speed=0.0102x elapsed=0:01:57.88    \nframe=   75 fps=0.6 q=18.3 size=     512KiB time=00:00:01.21 bitrate=3447.7kbits/s speed=0.0103x elapsed=0:01:58.38    \nframe=   75 fps=0.6 q=18.3 size=     512KiB time=00:00:01.21 bitrate=3447.7kbits/s speed=0.0102x elapsed=0:01:58.91    \nframe=   75 fps=0.6 q=18.3 size=     512KiB time=00:00:01.21 bitrate=3447.7kbits/s speed=0.0102x elapsed=0:01:59.43    \nframe=   76 fps=0.6 q=18.9 size=     512KiB time=00:00:01.23 bitrate=3401.1kbits/s speed=0.0103x elapsed=0:01:59.95    \nframe=   78 fps=0.6 q=17.6 size=     512KiB time=00:00:01.26 bitrate=3311.6kbits/s speed=0.0105x elapsed=0:02:00.49    \nframe=   78 fps=0.6 q=17.6 size=     512KiB time=00:00:01.26 bitrate=3311.6kbits/s speed=0.0105x elapsed=0:02:01.00    \nframe=   79 fps=0.7 q=19.0 size=     512KiB time=00:00:01.28 bitrate=3268.6kbits/s speed=0.0106x elapsed=0:02:01.52    \nframe=   79 fps=0.6 q=19.0 size=     512KiB time=00:00:01.28 bitrate=3268.6kbits/s speed=0.0105x elapsed=0:02:02.03    \nframe=   79 fps=0.6 q=19.0 size=     512KiB time=00:00:01.28 bitrate=3268.6kbits/s speed=0.0105x elapsed=0:02:02.56    \nframe=   80 fps=0.6 q=18.9 size=     512KiB time=00:00:01.30 bitrate=3226.7kbits/s speed=0.0106x elapsed=0:02:03.08    \nframe=   80 fps=0.6 q=18.9 size=     512KiB time=00:00:01.30 bitrate=3226.7kbits/s speed=0.0105x elapsed=0:02:03.60    \nframe=   81 fps=0.7 q=18.7 size=     512KiB time=00:00:01.31 bitrate=3185.8kbits/s speed=0.0106x elapsed=0:02:04.13    \nframe=   82 fps=0.7 q=13.5 size=     512KiB time=00:00:01.33 bitrate=3146.0kbits/s speed=0.0107x elapsed=0:02:04.66    \nframe=   83 fps=0.7 q=17.7 size=     512KiB time=00:00:01.35 bitrate=3107.2kbits/s speed=0.0108x elapsed=0:02:05.18    \nframe=   84 fps=0.7 q=19.0 size=     512KiB time=00:00:01.36 bitrate=3069.3kbits/s speed=0.0109x elapsed=0:02:05.70    \nframe=   84 fps=0.7 q=19.0 size=     512KiB time=00:00:01.36 bitrate=3069.3kbits/s speed=0.0108x elapsed=0:02:06.23    \nframe=   84 fps=0.7 q=19.0 size=     512KiB time=00:00:01.36 bitrate=3069.3kbits/s speed=0.0108x elapsed=0:02:06.76    \nframe=   84 fps=0.7 q=19.0 size=     512KiB time=00:00:01.36 bitrate=3069.3kbits/s speed=0.0107x elapsed=0:02:07.30    \nframe=   85 fps=0.7 q=18.9 size=     512KiB time=00:00:01.38 bitrate=3032.3kbits/s speed=0.0108x elapsed=0:02:07.81    \nframe=   86 fps=0.7 q=18.8 size=     512KiB time=00:00:01.40 bitrate=2996.2kbits/s speed=0.0109x elapsed=0:02:08.33    \nframe=   86 fps=0.7 q=18.8 size=     512KiB time=00:00:01.40 bitrate=2996.2kbits/s speed=0.0109x elapsed=0:02:08.88    \nframe=   87 fps=0.7 q=12.4 size=     512KiB time=00:00:01.41 bitrate=2960.9kbits/s speed=0.0109x elapsed=0:02:09.40    \nframe=   87 fps=0.7 q=12.4 size=     512KiB time=00:00:01.41 bitrate=2960.9kbits/s speed=0.0109x elapsed=0:02:09.94    \nframe=   88 fps=0.7 q=17.6 size=     512KiB time=00:00:01.43 bitrate=2926.5kbits/s speed=0.011x elapsed=0:02:10.48    \nframe=   89 fps=0.7 q=18.7 size=     512KiB time=00:00:01.45 bitrate=2892.9kbits/s speed=0.0111x elapsed=0:02:11.00    \nframe=   89 fps=0.7 q=18.7 size=     512KiB time=00:00:01.45 bitrate=2892.9kbits/s speed=0.011x elapsed=0:02:11.54    \nframe=   89 fps=0.7 q=18.7 size=     512KiB time=00:00:01.45 bitrate=2892.9kbits/s speed=0.011x elapsed=0:02:12.09    \nframe=   89 fps=0.7 q=18.7 size=     512KiB time=00:00:01.45 bitrate=2892.9kbits/s speed=0.0109x elapsed=0:02:12.62    \nframe=   89 fps=0.7 q=18.7 size=     512KiB time=00:00:01.45 bitrate=2892.9kbits/s speed=0.0109x elapsed=0:02:13.14    \nframe=   90 fps=0.7 q=18.3 size=     512KiB time=00:00:01.46 bitrate=2860.0kbits/s speed=0.011x elapsed=0:02:13.67    \nframe=   90 fps=0.7 q=18.3 size=     512KiB time=00:00:01.46 bitrate=2860.0kbits/s speed=0.0109x elapsed=0:02:14.23    \nframe=   90 fps=0.7 q=18.3 size=     512KiB time=00:00:01.46 bitrate=2860.0kbits/s speed=0.0109x elapsed=0:02:14.80    \nframe=   91 fps=0.7 q=19.1 size=     512KiB time=00:00:01.48 bitrate=2827.9kbits/s speed=0.011x elapsed=0:02:15.35    \nframe=   92 fps=0.7 q=12.8 size=     512KiB time=00:00:01.50 bitrate=2796.4kbits/s speed=0.011x elapsed=0:02:15.90    \nframe=   92 fps=0.7 q=12.8 size=     512KiB time=00:00:01.50 bitrate=2796.4kbits/s speed=0.011x elapsed=0:02:16.43    \nframe=   92 fps=0.7 q=12.8 size=     512KiB time=00:00:01.50 bitrate=2796.4kbits/s speed=0.011x elapsed=0:02:16.97    \nframe=   92 fps=0.7 q=12.8 size=     512KiB time=00:00:01.50 bitrate=2796.4kbits/s speed=0.0109x elapsed=0:02:17.51    \nframe=   93 fps=0.7 q=17.4 size=     512KiB time=00:00:01.51 bitrate=2765.7kbits/s speed=0.011x elapsed=0:02:18.10    \nframe=   93 fps=0.7 q=17.4 size=     512KiB time=00:00:01.51 bitrate=2765.7kbits/s speed=0.0109x elapsed=0:02:18.67    \nframe=   93 fps=0.7 q=17.4 size=     512KiB time=00:00:01.51 bitrate=2765.7kbits/s speed=0.0109x elapsed=0:02:19.19    \nframe=   94 fps=0.7 q=18.6 size=     512KiB time=00:00:01.53 bitrate=2735.6kbits/s speed=0.011x elapsed=0:02:19.70    \nframe=   94 fps=0.7 q=18.6 size=     512KiB time=00:00:01.53 bitrate=2735.6kbits/s speed=0.0109x elapsed=0:02:20.27    \nframe=   94 fps=0.7 q=18.6 size=     512KiB time=00:00:01.53 bitrate=2735.6kbits/s speed=0.0109x elapsed=0:02:20.84    \nframe=   94 fps=0.7 q=18.6 size=     512KiB time=00:00:01.53 bitrate=2735.6kbits/s speed=0.0108x elapsed=0:02:21.41    \nframe=   94 fps=0.7 q=18.6 size=     512KiB time=00:00:01.53 bitrate=2735.6kbits/s speed=0.0108x elapsed=0:02:21.96    \nframe=   94 fps=0.7 q=18.6 size=     512KiB time=00:00:01.53 bitrate=2735.6kbits/s speed=0.0108x elapsed=0:02:22.49    \nframe=   94 fps=0.7 q=18.6 size=     512KiB time=00:00:01.53 bitrate=2735.6kbits/s speed=0.0107x elapsed=0:02:23.02    \nframe=   94 fps=0.7 q=18.6 size=     512KiB time=00:00:01.53 bitrate=2735.6kbits/s speed=0.0107x elapsed=0:02:23.55    \nframe=   94 fps=0.7 q=18.6 size=     512KiB time=00:00:01.53 bitrate=2735.6kbits/s speed=0.0106x elapsed=0:02:24.10    \nframe=   94 fps=0.6 q=18.6 size=     512KiB time=00:00:01.53 bitrate=2735.6kbits/s speed=0.0106x elapsed=0:02:24.63    \nframe=   95 fps=0.7 q=18.6 size=     512KiB time=00:00:01.55 bitrate=2706.2kbits/s speed=0.0107x elapsed=0:02:25.19    \nframe=   95 fps=0.7 q=18.6 size=     512KiB time=00:00:01.55 bitrate=2706.2kbits/s speed=0.0106x elapsed=0:02:25.73    \nframe=   95 fps=0.6 q=18.6 size=     512KiB time=00:00:01.55 bitrate=2706.2kbits/s speed=0.0106x elapsed=0:02:26.28    \nframe=   96 fps=0.7 q=18.7 size=     512KiB time=00:00:01.56 bitrate=2677.4kbits/s speed=0.0107x elapsed=0:02:26.85    \nframe=   96 fps=0.7 q=18.7 size=     512KiB time=00:00:01.56 bitrate=2677.4kbits/s speed=0.0106x elapsed=0:02:27.40    \nframe=   96 fps=0.6 q=18.7 size=     512KiB time=00:00:01.56 bitrate=2677.4kbits/s speed=0.0106x elapsed=0:02:27.94    \nframe=   96 fps=0.6 q=18.7 size=     512KiB time=00:00:01.56 bitrate=2677.4kbits/s speed=0.0105x elapsed=0:02:28.51    \nframe=   97 fps=0.7 q=12.5 size=     512KiB time=00:00:01.58 bitrate=2649.3kbits/s speed=0.0106x elapsed=0:02:29.04    \nframe=   97 fps=0.6 q=12.5 size=     512KiB time=00:00:01.58 bitrate=2649.3kbits/s speed=0.0106x elapsed=0:02:29.58    \nframe=   97 fps=0.6 q=12.5 size=     512KiB time=00:00:01.58 bitrate=2649.3kbits/s speed=0.0105x elapsed=0:02:30.15    \nframe=   98 fps=0.7 q=17.8 size=     512KiB time=00:00:01.60 bitrate=2621.7kbits/s speed=0.0106x elapsed=0:02:30.74    \nframe=   98 fps=0.6 q=17.8 size=     512KiB time=00:00:01.60 bitrate=2621.7kbits/s speed=0.0106x elapsed=0:02:31.25    \nframe=   98 fps=0.6 q=17.8 size=     512KiB time=00:00:01.60 bitrate=2621.7kbits/s speed=0.0105x elapsed=0:02:31.76    \nframe=   99 fps=0.7 q=18.8 size=     512KiB time=00:00:01.61 bitrate=2594.6kbits/s speed=0.0106x elapsed=0:02:32.30    \nframe=   99 fps=0.6 q=18.8 size=     512KiB time=00:00:01.61 bitrate=2594.6kbits/s speed=0.0106x elapsed=0:02:32.88    \nframe=   99 fps=0.6 q=18.8 size=     512KiB time=00:00:01.61 bitrate=2594.6kbits/s speed=0.0105x elapsed=0:02:33.43    \nframe=   99 fps=0.6 q=18.8 size=     512KiB time=00:00:01.61 bitrate=2594.6kbits/s speed=0.0105x elapsed=0:02:33.98    \nframe=  100 fps=0.6 q=18.8 size=     512KiB time=00:00:01.63 bitrate=2568.2kbits/s speed=0.0106x elapsed=0:02:34.50    \nframe=  100 fps=0.6 q=18.8 size=     512KiB time=00:00:01.63 bitrate=2568.2kbits/s speed=0.0105x elapsed=0:02:35.03    \nframe=  100 fps=0.6 q=18.8 size=     512KiB time=00:00:01.63 bitrate=2568.2kbits/s speed=0.0105x elapsed=0:02:35.55    \nframe=  100 fps=0.6 q=18.8 size=     512KiB time=00:00:01.63 bitrate=2568.2kbits/s speed=0.0105x elapsed=0:02:36.09    \nframe=  100 fps=0.6 q=18.8 size=     512KiB time=00:00:01.63 bitrate=2568.2kbits/s speed=0.0104x elapsed=0:02:36.65    \nframe=  100 fps=0.6 q=18.8 size=     512KiB time=00:00:01.63 bitrate=2568.2kbits/s speed=0.0104x elapsed=0:02:37.22    \nframe=  101 fps=0.6 q=18.9 size=     768KiB time=00:00:01.65 bitrate=3813.2kbits/s speed=0.0105x elapsed=0:02:37.76    \nframe=  101 fps=0.6 q=18.9 size=     768KiB time=00:00:01.65 bitrate=3813.2kbits/s speed=0.0104x elapsed=0:02:38.30    \nframe=  101 fps=0.6 q=18.9 size=     768KiB time=00:00:01.65 bitrate=3813.2kbits/s speed=0.0104x elapsed=0:02:38.88    \nframe=  101 fps=0.6 q=18.9 size=     768KiB time=00:00:01.65 bitrate=3813.2kbits/s speed=0.0103x elapsed=0:02:39.42    \nframe=  102 fps=0.6 q=12.6 size=     768KiB time=00:00:01.66 bitrate=3775.1kbits/s speed=0.0104x elapsed=0:02:39.99    \nframe=  102 fps=0.6 q=12.6 size=     768KiB time=00:00:01.66 bitrate=3775.1kbits/s speed=0.0104x elapsed=0:02:40.52    \nframe=  102 fps=0.6 q=12.6 size=     768KiB time=00:00:01.66 bitrate=3775.1kbits/s speed=0.0103x elapsed=0:02:41.06    \nframe=  103 fps=0.6 q=17.8 size=     768KiB time=00:00:01.68 bitrate=3737.7kbits/s speed=0.0104x elapsed=0:02:41.58    \nframe=  103 fps=0.6 q=17.8 size=     768KiB time=00:00:01.68 bitrate=3737.7kbits/s speed=0.0104x elapsed=0:02:42.13    \nframe=  103 fps=0.6 q=17.8 size=     768KiB time=00:00:01.68 bitrate=3737.7kbits/s speed=0.0103x elapsed=0:02:42.71    \nframe=  103 fps=0.6 q=17.8 size=     768KiB time=00:00:01.68 bitrate=3737.7kbits/s speed=0.0103x elapsed=0:02:43.26    \nframe=  104 fps=0.6 q=19.3 size=     768KiB time=00:00:01.70 bitrate=3701.1kbits/s speed=0.0104x elapsed=0:02:43.79    \nframe=  104 fps=0.6 q=19.3 size=     768KiB time=00:00:01.70 bitrate=3701.1kbits/s speed=0.0103x elapsed=0:02:44.31    \nframe=  104 fps=0.6 q=19.3 size=     768KiB time=00:00:01.70 bitrate=3701.1kbits/s speed=0.0103x elapsed=0:02:44.83    \nframe=  104 fps=0.6 q=19.3 size=     768KiB time=00:00:01.70 bitrate=3701.1kbits/s speed=0.0103x elapsed=0:02:45.36    \nframe=  105 fps=0.6 q=19.3 size=     768KiB time=00:00:01.71 bitrate=3665.1kbits/s speed=0.0103x elapsed=0:02:45.87    \nframe=  105 fps=0.6 q=19.3 size=     768KiB time=00:00:01.71 bitrate=3665.1kbits/s speed=0.0103x elapsed=0:02:46.43    \nframe=  106 fps=0.6 q=19.1 size=     768KiB time=00:00:01.73 bitrate=3629.9kbits/s speed=0.0104x elapsed=0:02:47.01    \nframe=  106 fps=0.6 q=19.1 size=     768KiB time=00:00:01.73 bitrate=3629.9kbits/s speed=0.0103x elapsed=0:02:47.56    \nframe=  108 fps=0.6 q=18.0 size=     768KiB time=00:00:01.76 bitrate=3561.4kbits/s speed=0.0105x elapsed=0:02:48.09    \nframe=  109 fps=0.6 q=19.1 size=     768KiB time=00:00:01.78 bitrate=3528.1kbits/s speed=0.0106x elapsed=0:02:48.61    \nframe=  109 fps=0.6 q=19.1 size=     768KiB time=00:00:01.78 bitrate=3528.1kbits/s speed=0.0105x elapsed=0:02:49.16    \nframe=  109 fps=0.6 q=19.1 size=     768KiB time=00:00:01.78 bitrate=3528.1kbits/s speed=0.0105x elapsed=0:02:49.69    \nframe=  110 fps=0.6 q=18.9 size=     768KiB time=00:00:01.80 bitrate=3495.4kbits/s speed=0.0106x elapsed=0:02:50.21    \nframe=  110 fps=0.6 q=18.9 size=     768KiB time=00:00:01.80 bitrate=3495.4kbits/s speed=0.0105x elapsed=0:02:50.72    \nframe=  111 fps=0.6 q=19.2 size=     768KiB time=00:00:01.81 bitrate=3463.4kbits/s speed=0.0106x elapsed=0:02:51.25    \nframe=  112 fps=0.7 q=12.6 size=     768KiB time=00:00:01.83 bitrate=3431.9kbits/s speed=0.0107x elapsed=0:02:51.79    \nframe=  113 fps=0.7 q=18.1 size=     768KiB time=00:00:01.85 bitrate=3401.0kbits/s speed=0.0107x elapsed=0:02:52.30    \nframe=  114 fps=0.7 q=19.6 size=     768KiB time=00:00:01.86 bitrate=3370.6kbits/s speed=0.0108x elapsed=0:02:52.83    \nframe=  114 fps=0.7 q=19.6 size=     768KiB time=00:00:01.86 bitrate=3370.6kbits/s speed=0.0108x elapsed=0:02:53.37    \nframe=  115 fps=0.7 q=19.2 size=     768KiB time=00:00:01.88 bitrate=3340.8kbits/s speed=0.0108x elapsed=0:02:53.91    \nframe=  115 fps=0.7 q=19.2 size=     768KiB time=00:00:01.88 bitrate=3340.8kbits/s speed=0.0108x elapsed=0:02:54.43    \nframe=  116 fps=0.7 q=19.2 size=     768KiB time=00:00:01.90 bitrate=3311.5kbits/s speed=0.0109x elapsed=0:02:54.93    \nframe=  117 fps=0.7 q=12.6 size=     768KiB time=00:00:01.91 bitrate=3282.7kbits/s speed=0.0109x elapsed=0:02:55.47    \nframe=  119 fps=0.7 q=19.0 size=     768KiB time=00:00:01.95 bitrate=3226.6kbits/s speed=0.0111x elapsed=0:02:56.01    \nframe=  120 fps=0.7 q=19.6 size=     768KiB time=00:00:01.96 bitrate=3199.2kbits/s speed=0.0111x elapsed=0:02:56.51    \nframe=  120 fps=0.7 q=19.6 size=     768KiB time=00:00:01.96 bitrate=3199.2kbits/s speed=0.0111x elapsed=0:02:57.03    \nframe=  121 fps=0.7 q=19.2 size=     768KiB time=00:00:01.98 bitrate=3172.3kbits/s speed=0.0112x elapsed=0:02:57.54    \nframe=  122 fps=0.7 q=12.8 size=     768KiB time=00:00:02.00 bitrate=3145.9kbits/s speed=0.0112x elapsed=0:02:58.07    \nframe=  124 fps=0.7 q=19.1 size=     768KiB time=00:00:02.03 bitrate=3094.3kbits/s speed=0.0114x elapsed=0:02:58.58    \nframe=  125 fps=0.7 q=19.1 size=     768KiB time=00:00:02.05 bitrate=3069.2kbits/s speed=0.0114x elapsed=0:02:59.09    \nframe=  126 fps=0.7 q=19.1 size=     768KiB time=00:00:02.06 bitrate=3044.4kbits/s speed=0.0115x elapsed=0:02:59.61    \nframe=  126 fps=0.7 q=19.1 size=     768KiB time=00:00:02.06 bitrate=3044.4kbits/s speed=0.0115x elapsed=0:03:00.13    \nframe=  126 fps=0.7 q=19.1 size=     768KiB time=00:00:02.06 bitrate=3044.4kbits/s speed=0.0114x elapsed=0:03:00.64    \nframe=  127 fps=0.7 q=13.0 size=     768KiB time=00:00:02.08 bitrate=3020.1kbits/s speed=0.0115x elapsed=0:03:01.16    \nframe=  127 fps=0.7 q=13.0 size=     768KiB time=00:00:02.08 bitrate=3020.1kbits/s speed=0.0115x elapsed=0:03:01.70    \nframe=  128 fps=0.7 q=17.8 size=     768KiB time=00:00:02.10 bitrate=2996.1kbits/s speed=0.0115x elapsed=0:03:02.24    \nframe=  129 fps=0.7 q=19.4 size=     768KiB time=00:00:02.11 bitrate=2972.5kbits/s speed=0.0116x elapsed=0:03:02.78    \nframe=  130 fps=0.7 q=18.9 size=     768KiB time=00:00:02.13 bitrate=2949.3kbits/s speed=0.0116x elapsed=0:03:03.31    \nframe=  130 fps=0.7 q=18.9 size=     768KiB time=00:00:02.13 bitrate=2949.3kbits/s speed=0.0116x elapsed=0:03:03.84    \nframe=  131 fps=0.7 q=18.8 size=     768KiB time=00:00:02.15 bitrate=2926.4kbits/s speed=0.0117x elapsed=0:03:04.36    \nframe=  132 fps=0.7 q=12.2 size=     768KiB time=00:00:02.16 bitrate=2903.9kbits/s speed=0.0117x elapsed=0:03:04.88    \nframe=  132 fps=0.7 q=12.2 size=     768KiB time=00:00:02.16 bitrate=2903.9kbits/s speed=0.0117x elapsed=0:03:05.42    \nframe=  132 fps=0.7 q=12.2 size=     768KiB time=00:00:02.16 bitrate=2903.9kbits/s speed=0.0116x elapsed=0:03:06.00    \nframe=  132 fps=0.7 q=12.2 size=     768KiB time=00:00:02.16 bitrate=2903.9kbits/s speed=0.0116x elapsed=0:03:06.57    \nframe=  132 fps=0.7 q=12.2 size=     768KiB time=00:00:02.16 bitrate=2903.9kbits/s speed=0.0116x elapsed=0:03:07.16    \nframe=  132 fps=0.7 q=12.2 size=     768KiB time=00:00:02.16 bitrate=2903.9kbits/s speed=0.0115x elapsed=0:03:07.78    \nframe=  132 fps=0.7 q=12.2 size=     768KiB time=00:00:02.16 bitrate=2903.9kbits/s speed=0.0115x elapsed=0:03:08.42    \nframe=  133 fps=0.7 q=17.9 size=    1024KiB time=00:00:02.18 bitrate=3842.3kbits/s speed=0.0116x elapsed=0:03:09.00    \nframe=  133 fps=0.7 q=17.9 size=    1024KiB time=00:00:02.18 bitrate=3842.3kbits/s speed=0.0115x elapsed=0:03:09.53    \nframe=  134 fps=0.7 q=19.2 size=    1024KiB time=00:00:02.20 bitrate=3813.2kbits/s speed=0.0116x elapsed=0:03:10.09    \nframe=  134 fps=0.7 q=19.2 size=    1024KiB time=00:00:02.20 bitrate=3813.2kbits/s speed=0.0115x elapsed=0:03:10.63    \nframe=  134 fps=0.7 q=19.2 size=    1024KiB time=00:00:02.20 bitrate=3813.2kbits/s speed=0.0115x elapsed=0:03:11.20    \nframe=  134 fps=0.7 q=19.2 size=    1024KiB time=00:00:02.20 bitrate=3813.2kbits/s speed=0.0115x elapsed=0:03:11.73    \nframe=  134 fps=0.7 q=19.2 size=    1024KiB time=00:00:02.20 bitrate=3813.2kbits/s speed=0.0114x elapsed=0:03:12.24    \nframe=  134 fps=0.7 q=19.2 size=    1024KiB time=00:00:02.20 bitrate=3813.2kbits/s speed=0.0114x elapsed=0:03:12.80    \nframe=  134 fps=0.7 q=19.2 size=    1024KiB time=00:00:02.20 bitrate=3813.2kbits/s speed=0.0114x elapsed=0:03:13.35    \nframe=  134 fps=0.7 q=19.2 size=    1024KiB time=00:00:02.20 bitrate=3813.2kbits/s speed=0.0113x elapsed=0:03:13.90    \nframe=  135 fps=0.7 q=18.7 size=    1024KiB time=00:00:02.21 bitrate=3784.5kbits/s speed=0.0114x elapsed=0:03:14.42    \nframe=  136 fps=0.7 q=19.3 size=    1024KiB time=00:00:02.23 bitrate=3756.3kbits/s speed=0.0115x elapsed=0:03:14.96    \nframe=  136 fps=0.7 q=19.3 size=    1024KiB time=00:00:02.23 bitrate=3756.3kbits/s speed=0.0114x elapsed=0:03:15.54    \nframe=  136 fps=0.7 q=19.3 size=    1024KiB time=00:00:02.23 bitrate=3756.3kbits/s speed=0.0114x elapsed=0:03:16.09    \nframe=  136 fps=0.7 q=19.3 size=    1024KiB time=00:00:02.23 bitrate=3756.3kbits/s speed=0.0114x elapsed=0:03:16.61    \nframe=  136 fps=0.7 q=19.3 size=    1024KiB time=00:00:02.23 bitrate=3756.3kbits/s speed=0.0113x elapsed=0:03:17.13    \nframe=  136 fps=0.7 q=19.3 size=    1024KiB time=00:00:02.23 bitrate=3756.3kbits/s speed=0.0113x elapsed=0:03:17.64    \nframe=  136 fps=0.7 q=19.3 size=    1024KiB time=00:00:02.23 bitrate=3756.3kbits/s speed=0.0113x elapsed=0:03:18.19    \nframe=  136 fps=0.7 q=19.3 size=    1024KiB time=00:00:02.23 bitrate=3756.3kbits/s speed=0.0112x elapsed=0:03:18.77    \nframe=  137 fps=0.7 q=12.6 size=    1024KiB time=00:00:02.25 bitrate=3728.4kbits/s speed=0.0113x elapsed=0:03:19.32    \nframe=  138 fps=0.7 q=17.9 size=    1024KiB time=00:00:02.26 bitrate=3701.0kbits/s speed=0.0113x elapsed=0:03:19.84    \nframe=  139 fps=0.7 q=19.4 size=    1024KiB time=00:00:02.28 bitrate=3674.0kbits/s speed=0.0114x elapsed=0:03:20.37    \nframe=  139 fps=0.7 q=19.4 size=    1024KiB time=00:00:02.28 bitrate=3674.0kbits/s speed=0.0114x elapsed=0:03:20.91    \nframe=  139 fps=0.7 q=19.4 size=    1024KiB time=00:00:02.28 bitrate=3674.0kbits/s speed=0.0113x elapsed=0:03:21.48    \nframe=  139 fps=0.7 q=19.4 size=    1024KiB time=00:00:02.28 bitrate=3674.0kbits/s speed=0.0113x elapsed=0:03:22.10    \nframe=  139 fps=0.7 q=19.4 size=    1024KiB time=00:00:02.28 bitrate=3674.0kbits/s speed=0.0113x elapsed=0:03:22.72    \nframe=  140 fps=0.7 q=19.6 size=    1024KiB time=00:00:02.30 bitrate=3647.4kbits/s speed=0.0113x elapsed=0:03:23.30    \nframe=  140 fps=0.7 q=19.6 size=    1024KiB time=00:00:02.30 bitrate=3647.4kbits/s speed=0.0113x elapsed=0:03:23.81    \nframe=  140 fps=0.7 q=19.6 size=    1024KiB time=00:00:02.30 bitrate=3647.4kbits/s speed=0.0113x elapsed=0:03:24.35    \nframe=  140 fps=0.7 q=19.6 size=    1024KiB time=00:00:02.30 bitrate=3647.4kbits/s speed=0.0112x elapsed=0:03:24.91    \nframe=  140 fps=0.7 q=19.6 size=    1024KiB time=00:00:02.30 bitrate=3647.4kbits/s speed=0.0112x elapsed=0:03:25.45    \nframe=  141 fps=0.7 q=19.3 size=    1024KiB time=00:00:02.31 bitrate=3621.1kbits/s speed=0.0112x elapsed=0:03:25.99    \nframe=  141 fps=0.7 q=19.3 size=    1024KiB time=00:00:02.31 bitrate=3621.1kbits/s speed=0.0112x elapsed=0:03:26.52    \nframe=  141 fps=0.7 q=19.3 size=    1024KiB time=00:00:02.31 bitrate=3621.1kbits/s speed=0.0112x elapsed=0:03:27.05    \nframe=  141 fps=0.7 q=19.3 size=    1024KiB time=00:00:02.31 bitrate=3621.1kbits/s speed=0.0112x elapsed=0:03:27.58    \nframe=  141 fps=0.7 q=19.3 size=    1024KiB time=00:00:02.31 bitrate=3621.1kbits/s speed=0.0111x elapsed=0:03:28.10    \nframe=  143 fps=0.7 q=18.3 size=    1024KiB time=00:00:02.35 bitrate=3569.8kbits/s speed=0.0113x elapsed=0:03:28.62    \nframe=  143 fps=0.7 q=18.3 size=    1024KiB time=00:00:02.35 bitrate=3569.8kbits/s speed=0.0112x elapsed=0:03:29.14    \nframe=  143 fps=0.7 q=18.3 size=    1024KiB time=00:00:02.35 bitrate=3569.8kbits/s speed=0.0112x elapsed=0:03:29.67    \nframe=  144 fps=0.7 q=19.5 size=    1024KiB time=00:00:02.36 bitrate=3544.6kbits/s speed=0.0113x elapsed=0:03:30.19    \nframe=  145 fps=0.7 q=19.7 size=    1024KiB time=00:00:02.38 bitrate=3519.8kbits/s speed=0.0113x elapsed=0:03:30.70    \nframe=  146 fps=0.7 q=18.9 size=    1024KiB time=00:00:02.40 bitrate=3495.4kbits/s speed=0.0114x elapsed=0:03:31.22    \nframe=  146 fps=0.7 q=18.9 size=    1024KiB time=00:00:02.40 bitrate=3495.4kbits/s speed=0.0113x elapsed=0:03:31.74    \nframe=  147 fps=0.7 q=12.6 size=    1024KiB time=00:00:02.41 bitrate=3471.3kbits/s speed=0.0114x elapsed=0:03:32.24    \nframe=  148 fps=0.7 q=18.0 size=    1024KiB time=00:00:02.43 bitrate=3447.5kbits/s speed=0.0114x elapsed=0:03:32.77    \nframe=  150 fps=0.7 q=18.9 size=    1024KiB time=00:00:02.46 bitrate=3400.9kbits/s speed=0.0116x elapsed=0:03:33.29    \nframe=  150 fps=0.7 q=18.9 size=    1024KiB time=00:00:02.46 bitrate=3400.9kbits/s speed=0.0115x elapsed=0:03:33.83    \nframe=  151 fps=0.7 q=19.2 size=    1024KiB time=00:00:02.48 bitrate=3378.1kbits/s speed=0.0116x elapsed=0:03:34.42    \nframe=  151 fps=0.7 q=19.2 size=    1024KiB time=00:00:02.48 bitrate=3378.1kbits/s speed=0.0116x elapsed=0:03:34.93    \nframe=  151 fps=0.7 q=19.2 size=    1024KiB time=00:00:02.48 bitrate=3378.1kbits/s speed=0.0115x elapsed=0:03:35.45    \nframe=  151 fps=0.7 q=19.2 size=    1024KiB time=00:00:02.48 bitrate=3378.1kbits/s speed=0.0115x elapsed=0:03:35.98    \nframe=  152 fps=0.7 q=12.7 size=    1024KiB time=00:00:02.50 bitrate=3355.6kbits/s speed=0.0115x elapsed=0:03:36.48    \nframe=  152 fps=0.7 q=12.7 size=    1024KiB time=00:00:02.50 bitrate=3355.6kbits/s speed=0.0115x elapsed=0:03:37.02    \nframe=  153 fps=0.7 q=17.8 size=    1024KiB time=00:00:02.51 bitrate=3333.4kbits/s speed=0.0116x elapsed=0:03:37.54    \nframe=  154 fps=0.7 q=19.6 size=    1024KiB time=00:00:02.53 bitrate=3311.4kbits/s speed=0.0116x elapsed=0:03:38.06    \nframe=  154 fps=0.7 q=19.6 size=    1024KiB time=00:00:02.53 bitrate=3311.4kbits/s speed=0.0116x elapsed=0:03:38.60    \nframe=  154 fps=0.7 q=19.6 size=    1024KiB time=00:00:02.53 bitrate=3311.4kbits/s speed=0.0116x elapsed=0:03:39.10    \nframe=  156 fps=0.7 q=19.6 size=    1024KiB time=00:00:02.56 bitrate=3268.4kbits/s speed=0.0117x elapsed=0:03:39.63    \nframe=  156 fps=0.7 q=19.6 size=    1024KiB time=00:00:02.56 bitrate=3268.4kbits/s speed=0.0117x elapsed=0:03:40.16    \nframe=  157 fps=0.7 q=12.8 size=    1024KiB time=00:00:02.58 bitrate=3247.3kbits/s speed=0.0117x elapsed=0:03:40.68    \nframe=  157 fps=0.7 q=12.8 size=    1024KiB time=00:00:02.58 bitrate=3247.3kbits/s speed=0.0117x elapsed=0:03:41.20    \nframe=  158 fps=0.7 q=18.1 size=    1024KiB time=00:00:02.60 bitrate=3226.5kbits/s speed=0.0117x elapsed=0:03:41.73    \nframe=  159 fps=0.7 q=19.7 size=    1024KiB time=00:00:02.61 bitrate=3206.0kbits/s speed=0.0118x elapsed=0:03:42.26    \nframe=  160 fps=0.7 q=19.3 size=    1024KiB time=00:00:02.63 bitrate=3185.7kbits/s speed=0.0118x elapsed=0:03:42.78    \nframe=  162 fps=0.7 q=12.8 size=    1024KiB time=00:00:02.66 bitrate=3145.9kbits/s speed=0.0119x elapsed=0:03:43.34    \nframe=  162 fps=0.7 q=12.8 size=    1024KiB time=00:00:02.66 bitrate=3145.9kbits/s speed=0.0119x elapsed=0:03:43.87    \nframe=  162 fps=0.7 q=12.8 size=    1024KiB time=00:00:02.66 bitrate=3145.9kbits/s speed=0.0119x elapsed=0:03:44.41    \nframe=  164 fps=0.7 q=19.9 size=    1280KiB time=00:00:02.70 bitrate=3883.7kbits/s speed=0.012x elapsed=0:03:44.94    \nframe=  165 fps=0.7 q=19.1 size=    1280KiB time=00:00:02.71 bitrate=3859.9kbits/s speed=0.012x elapsed=0:03:45.47    \nframe=  165 fps=0.7 q=19.1 size=    1280KiB time=00:00:02.71 bitrate=3859.9kbits/s speed=0.012x elapsed=0:03:45.98    \nframe=  166 fps=0.7 q=19.4 size=    1280KiB time=00:00:02.73 bitrate=3836.4kbits/s speed=0.0121x elapsed=0:03:46.51    \nframe=  166 fps=0.7 q=19.4 size=    1280KiB time=00:00:02.73 bitrate=3836.4kbits/s speed=0.012x elapsed=0:03:47.02    \nframe=  166 fps=0.7 q=19.4 size=    1280KiB time=00:00:02.73 bitrate=3836.4kbits/s speed=0.012x elapsed=0:03:47.53    \nframe=  166 fps=0.7 q=19.4 size=    1280KiB time=00:00:02.73 bitrate=3836.4kbits/s speed=0.012x elapsed=0:03:48.04    \nframe=  167 fps=0.7 q=12.8 size=    1280KiB time=00:00:02.75 bitrate=3813.1kbits/s speed=0.012x elapsed=0:03:48.58    \nframe=  168 fps=0.7 q=18.2 size=    1280KiB time=00:00:02.76 bitrate=3790.2kbits/s speed=0.0121x elapsed=0:03:49.10    \nframe=  169 fps=0.7 q=19.2 size=    1280KiB time=00:00:02.78 bitrate=3767.5kbits/s speed=0.0121x elapsed=0:03:49.61    \nframe=  170 fps=0.7 q=19.6 size=    1280KiB time=00:00:02.80 bitrate=3745.0kbits/s speed=0.0122x elapsed=0:03:50.13    \nframe=  170 fps=0.7 q=19.6 size=    1280KiB time=00:00:02.80 bitrate=3745.0kbits/s speed=0.0121x elapsed=0:03:50.68    \nframe=  170 fps=0.7 q=19.6 size=    1280KiB time=00:00:02.80 bitrate=3745.0kbits/s speed=0.0121x elapsed=0:03:51.23    \nframe=  170 fps=0.7 q=19.6 size=    1280KiB time=00:00:02.80 bitrate=3745.0kbits/s speed=0.0121x elapsed=0:03:51.75    \nframe=  171 fps=0.7 q=19.7 size=    1280KiB time=00:00:02.81 bitrate=3722.9kbits/s speed=0.0121x elapsed=0:03:52.28    \nframe=  172 fps=0.7 q=12.7 size=    1280KiB time=00:00:02.83 bitrate=3701.0kbits/s speed=0.0122x elapsed=0:03:52.80    \nframe=  172 fps=0.7 q=12.7 size=    1280KiB time=00:00:02.83 bitrate=3701.0kbits/s speed=0.0121x elapsed=0:03:53.33    \nframe=  173 fps=0.7 q=18.1 size=    1280KiB time=00:00:02.85 bitrate=3679.3kbits/s speed=0.0122x elapsed=0:03:53.84    \nframe=  174 fps=0.7 q=19.8 size=    1280KiB time=00:00:02.86 bitrate=3657.9kbits/s speed=0.0122x elapsed=0:03:54.37    \nframe=  174 fps=0.7 q=19.8 size=    1280KiB time=00:00:02.86 bitrate=3657.9kbits/s speed=0.0122x elapsed=0:03:54.87    \nframe=  174 fps=0.7 q=19.8 size=    1280KiB time=00:00:02.86 bitrate=3657.9kbits/s speed=0.0122x elapsed=0:03:55.39    \nframe=  175 fps=0.7 q=18.8 size=    1280KiB time=00:00:02.88 bitrate=3636.8kbits/s speed=0.0122x elapsed=0:03:55.93    \nframe=  176 fps=0.7 q=19.5 size=    1280KiB time=00:00:02.90 bitrate=3615.9kbits/s speed=0.0123x elapsed=0:03:56.43    \nframe=  176 fps=0.7 q=19.5 size=    1280KiB time=00:00:02.90 bitrate=3615.9kbits/s speed=0.0122x elapsed=0:03:56.96    \nframe=  177 fps=0.7 q=12.3 size=    1280KiB time=00:00:02.91 bitrate=3595.2kbits/s speed=0.0123x elapsed=0:03:57.48    \nframe=  177 fps=0.7 q=12.3 size=    1280KiB time=00:00:02.91 bitrate=3595.2kbits/s speed=0.0123x elapsed=0:03:57.98    \nframe=  177 fps=0.7 q=12.3 size=    1280KiB time=00:00:02.91 bitrate=3595.2kbits/s speed=0.0122x elapsed=0:03:58.51    \nframe=  179 fps=0.7 q=19.6 size=    1280KiB time=00:00:02.95 bitrate=3554.6kbits/s speed=0.0123x elapsed=0:03:59.03    \nframe=  180 fps=0.8 q=18.9 size=    1280KiB time=00:00:02.96 bitrate=3534.6kbits/s speed=0.0124x elapsed=0:03:59.55    \nframe=  181 fps=0.8 q=19.3 size=    1280KiB time=00:00:02.98 bitrate=3514.9kbits/s speed=0.0124x elapsed=0:04:00.06    \nframe=  181 fps=0.8 q=19.3 size=    1280KiB time=00:00:02.98 bitrate=3514.9kbits/s speed=0.0124x elapsed=0:04:00.61    \nframe=  182 fps=0.8 q=12.4 size=    1280KiB time=00:00:03.00 bitrate=3495.4kbits/s speed=0.0124x elapsed=0:04:01.15    \nframe=  182 fps=0.8 q=12.4 size=    1280KiB time=00:00:03.00 bitrate=3495.4kbits/s speed=0.0124x elapsed=0:04:01.68    \nframe=  184 fps=0.8 q=19.1 size=    1280KiB time=00:00:03.03 bitrate=3457.0kbits/s speed=0.0125x elapsed=0:04:02.19    \nframe=  185 fps=0.8 q=19.3 size=    1280KiB time=00:00:03.05 bitrate=3438.1kbits/s speed=0.0126x elapsed=0:04:02.72    \nframe=  185 fps=0.8 q=19.3 size=    1280KiB time=00:00:03.05 bitrate=3438.1kbits/s speed=0.0125x elapsed=0:04:03.28    \nframe=  186 fps=0.8 q=19.4 size=    1280KiB time=00:00:03.06 bitrate=3419.4kbits/s speed=0.0126x elapsed=0:04:03.81    \nframe=  186 fps=0.8 q=19.4 size=    1280KiB time=00:00:03.06 bitrate=3419.4kbits/s speed=0.0126x elapsed=0:04:04.35    \nframe=  186 fps=0.8 q=19.4 size=    1280KiB time=00:00:03.06 bitrate=3419.4kbits/s speed=0.0125x elapsed=0:04:04.87    \nframe=  187 fps=0.8 q=12.4 size=    1280KiB time=00:00:03.08 bitrate=3400.9kbits/s speed=0.0126x elapsed=0:04:05.39    \nframe=  187 fps=0.8 q=12.4 size=    1280KiB time=00:00:03.08 bitrate=3400.9kbits/s speed=0.0125x elapsed=0:04:05.92    \nframe=  188 fps=0.8 q=17.8 size=    1280KiB time=00:00:03.10 bitrate=3382.6kbits/s speed=0.0126x elapsed=0:04:06.46    \nframe=  189 fps=0.8 q=19.2 size=    1280KiB time=00:00:03.11 bitrate=3364.5kbits/s speed=0.0126x elapsed=0:04:06.97    \nframe=  190 fps=0.8 q=18.9 size=    1280KiB time=00:00:03.13 bitrate=3346.6kbits/s speed=0.0127x elapsed=0:04:07.49    \nframe=  190 fps=0.8 q=18.9 size=    1280KiB time=00:00:03.13 bitrate=3346.6kbits/s speed=0.0126x elapsed=0:04:08.01    \nframe=  190 fps=0.8 q=18.9 size=    1280KiB time=00:00:03.13 bitrate=3346.6kbits/s speed=0.0126x elapsed=0:04:08.53    \nframe=  191 fps=0.8 q=19.1 size=    1280KiB time=00:00:03.15 bitrate=3328.9kbits/s speed=0.0126x elapsed=0:04:09.06    \nframe=  192 fps=0.8 q=12.4 size=    1280KiB time=00:00:03.16 bitrate=3311.4kbits/s speed=0.0127x elapsed=0:04:09.57    \nframe=  194 fps=0.8 q=19.0 size=    1536KiB time=00:00:03.20 bitrate=3932.3kbits/s speed=0.0128x elapsed=0:04:10.10    \nframe=  195 fps=0.8 q=19.1 size=    1536KiB time=00:00:03.21 bitrate=3911.9kbits/s speed=0.0128x elapsed=0:04:10.61    \nframe=  195 fps=0.8 q=19.1 size=    1536KiB time=00:00:03.21 bitrate=3911.9kbits/s speed=0.0128x elapsed=0:04:11.16    \nframe=  195 fps=0.8 q=19.1 size=    1536KiB time=00:00:03.21 bitrate=3911.9kbits/s speed=0.0128x elapsed=0:04:11.68    \nframe=  197 fps=0.8 q=12.2 size=    1536KiB time=00:00:03.25 bitrate=3871.8kbits/s speed=0.0129x elapsed=0:04:12.20    \nframe=  197 fps=0.8 q=12.2 size=    1536KiB time=00:00:03.25 bitrate=3871.8kbits/s speed=0.0129x elapsed=0:04:12.70    \nframe=  198 fps=0.8 q=17.6 size=    1536KiB time=00:00:03.26 bitrate=3852.0kbits/s speed=0.0129x elapsed=0:04:13.22    \nframe=  199 fps=0.8 q=19.4 size=    1536KiB time=00:00:03.28 bitrate=3832.5kbits/s speed=0.0129x elapsed=0:04:13.73    \nframe=  200 fps=0.8 q=18.9 size=    1536KiB time=00:00:03.30 bitrate=3813.1kbits/s speed=0.013x elapsed=0:04:14.25    \nframe=  201 fps=0.8 q=19.0 size=    1536KiB time=00:00:03.31 bitrate=3793.9kbits/s speed=0.013x elapsed=0:04:14.77    \nframe=  202 fps=0.8 q=12.2 size=    1536KiB time=00:00:03.33 bitrate=3775.0kbits/s speed=0.0131x elapsed=0:04:15.28    \nframe=  202 fps=0.8 q=12.2 size=    1536KiB time=00:00:03.33 bitrate=3775.0kbits/s speed=0.013x elapsed=0:04:15.79    \nframe=  202 fps=0.8 q=12.2 size=    1536KiB time=00:00:03.33 bitrate=3775.0kbits/s speed=0.013x elapsed=0:04:16.33    \nframe=  202 fps=0.8 q=12.2 size=    1536KiB time=00:00:03.33 bitrate=3775.0kbits/s speed=0.013x elapsed=0:04:16.85    \nframe=  202 fps=0.8 q=12.2 size=    1536KiB time=00:00:03.33 bitrate=3775.0kbits/s speed=0.0129x elapsed=0:04:17.41    \nframe=  202 fps=0.8 q=12.2 size=    1536KiB time=00:00:03.33 bitrate=3775.0kbits/s speed=0.0129x elapsed=0:04:17.99    \nframe=  203 fps=0.8 q=17.8 size=    1536KiB time=00:00:03.35 bitrate=3756.2kbits/s speed=0.013x elapsed=0:04:18.50    \nframe=  203 fps=0.8 q=17.8 size=    1536KiB time=00:00:03.35 bitrate=3756.2kbits/s speed=0.0129x elapsed=0:04:19.03    \nframe=  204 fps=0.8 q=19.4 size=    1536KiB time=00:00:03.36 bitrate=3737.6kbits/s speed=0.013x elapsed=0:04:19.55    \nframe=  204 fps=0.8 q=19.4 size=    1536KiB time=00:00:03.36 bitrate=3737.6kbits/s speed=0.0129x elapsed=0:04:20.07    \nframe=  206 fps=0.8 q=19.4 size=    1536KiB time=00:00:03.40 bitrate=3701.0kbits/s speed=0.013x elapsed=0:04:20.59    \nframe=  207 fps=0.8 q=12.6 size=    1536KiB time=00:00:03.41 bitrate=3682.9kbits/s speed=0.0131x elapsed=0:04:21.11    \nframe=  208 fps=0.8 q=18.0 size=    1536KiB time=00:00:03.43 bitrate=3665.0kbits/s speed=0.0131x elapsed=0:04:21.63    \nframe=  209 fps=0.8 q=20.1 size=    1536KiB time=00:00:03.45 bitrate=3647.3kbits/s speed=0.0132x elapsed=0:04:22.14    \nframe=  211 fps=0.8 q=19.4 size=    1536KiB time=00:00:03.48 bitrate=3612.4kbits/s speed=0.0133x elapsed=0:04:22.66    \nframe=  212 fps=0.8 q=12.7 size=    1536KiB time=00:00:03.50 bitrate=3595.2kbits/s speed=0.0133x elapsed=0:04:23.18    \nframe=  213 fps=0.8 q=17.7 size=    1536KiB time=00:00:03.51 bitrate=3578.2kbits/s speed=0.0133x elapsed=0:04:23.69    \nframe=  214 fps=0.8 q=19.0 size=    1536KiB time=00:00:03.53 bitrate=3561.3kbits/s speed=0.0134x elapsed=0:04:24.21    \nframe=  216 fps=0.8 q=19.3 size=    1536KiB time=00:00:03.56 bitrate=3528.0kbits/s speed=0.0135x elapsed=0:04:24.73    \nframe=  217 fps=0.8 q=13.7 size=    1536KiB time=00:00:03.58 bitrate=3511.6kbits/s speed=0.0135x elapsed=0:04:25.23    \nframe=  218 fps=0.8 q=17.7 size=    1536KiB time=00:00:03.60 bitrate=3495.4kbits/s speed=0.0135x elapsed=0:04:25.75    \nframe=  219 fps=0.8 q=19.0 size=    1536KiB time=00:00:03.61 bitrate=3479.2kbits/s speed=0.0136x elapsed=0:04:26.27    \nframe=  220 fps=0.8 q=19.4 size=    1536KiB time=00:00:03.63 bitrate=3463.3kbits/s speed=0.0136x elapsed=0:04:26.77    \nframe=  221 fps=0.8 q=19.3 size=    1536KiB time=00:00:03.65 bitrate=3447.5kbits/s speed=0.0137x elapsed=0:04:27.30    \nframe=  221 fps=0.8 q=19.3 size=    1536KiB time=00:00:03.65 bitrate=3447.5kbits/s speed=0.0136x elapsed=0:04:27.82    \nframe=  222 fps=0.8 q=12.3 size=    1536KiB time=00:00:03.66 bitrate=3431.8kbits/s speed=0.0137x elapsed=0:04:28.32    \nframe=  224 fps=0.8 q=18.9 size=    1536KiB time=00:00:03.70 bitrate=3400.9kbits/s speed=0.0138x elapsed=0:04:28.85    \nframe=  224 fps=0.8 q=18.9 size=    1536KiB time=00:00:03.70 bitrate=3400.9kbits/s speed=0.0137x elapsed=0:04:29.37    \nframe=  225 fps=0.8 q=18.7 size=    1792KiB time=00:00:03.71 bitrate=3949.9kbits/s speed=0.0138x elapsed=0:04:29.87    \nframe=  226 fps=0.8 q=19.2 size=    1792KiB time=00:00:03.73 bitrate=3932.3kbits/s speed=0.0138x elapsed=0:04:30.39    \nframe=  227 fps=0.8 q=12.6 size=    1792KiB time=00:00:03.75 bitrate=3914.8kbits/s speed=0.0138x elapsed=0:04:30.91    \nframe=  229 fps=0.8 q=19.8 size=    1792KiB time=00:00:03.78 bitrate=3880.3kbits/s speed=0.0139x elapsed=0:04:31.43    \nframe=  230 fps=0.8 q=19.6 size=    1792KiB time=00:00:03.80 bitrate=3863.3kbits/s speed=0.014x elapsed=0:04:31.95    \nframe=  232 fps=0.9 q=12.7 size=    1792KiB time=00:00:03.83 bitrate=3829.7kbits/s speed=0.0141x elapsed=0:04:32.47    \nframe=  234 fps=0.9 q=20.3 size=    1792KiB time=00:00:03.86 bitrate=3796.7kbits/s speed=0.0142x elapsed=0:04:32.99    \nframe=  235 fps=0.9 q=20.2 size=    1792KiB time=00:00:03.88 bitrate=3780.4kbits/s speed=0.0142x elapsed=0:04:33.50    \nframe=  236 fps=0.9 q=20.2 size=    1792KiB time=00:00:03.90 bitrate=3764.2kbits/s speed=0.0142x elapsed=0:04:34.02    \nframe=  237 fps=0.9 q=12.7 size=    1792KiB time=00:00:03.91 bitrate=3748.2kbits/s speed=0.0143x elapsed=0:04:34.53    \nframe=  237 fps=0.9 q=12.7 size=    1792KiB time=00:00:03.91 bitrate=3748.2kbits/s speed=0.0142x elapsed=0:04:35.06    \nframe=  237 fps=0.9 q=12.7 size=    1792KiB time=00:00:03.91 bitrate=3748.2kbits/s speed=0.0142x elapsed=0:04:35.59    \nframe=  237 fps=0.9 q=12.7 size=    1792KiB time=00:00:03.91 bitrate=3748.2kbits/s speed=0.0142x elapsed=0:04:36.11    \nframe=  238 fps=0.9 q=18.7 size=    1792KiB time=00:00:03.93 bitrate=3732.3kbits/s speed=0.0142x elapsed=0:04:36.64    \nframe=  239 fps=0.9 q=20.3 size=    1792KiB time=00:00:03.95 bitrate=3716.6kbits/s speed=0.0143x elapsed=0:04:37.18    \nframe=  239 fps=0.9 q=20.3 size=    1792KiB time=00:00:03.95 bitrate=3716.6kbits/s speed=0.0142x elapsed=0:04:37.71    \nframe=  240 fps=0.9 q=20.4 size=    1792KiB time=00:00:03.96 bitrate=3700.9kbits/s speed=0.0143x elapsed=0:04:38.24    \nframe=  240 fps=0.9 q=20.4 size=    1792KiB time=00:00:03.96 bitrate=3700.9kbits/s speed=0.0142x elapsed=0:04:38.76    \nframe=  241 fps=0.9 q=20.2 size=    1792KiB time=00:00:03.98 bitrate=3685.5kbits/s speed=0.0143x elapsed=0:04:39.30    \nframe=  242 fps=0.9 q=12.6 size=    1792KiB time=00:00:04.00 bitrate=3670.1kbits/s speed=0.0143x elapsed=0:04:39.81    \nframe=  242 fps=0.9 q=12.6 size=    1792KiB time=00:00:04.00 bitrate=3670.1kbits/s speed=0.0143x elapsed=0:04:40.33    \nframe=  242 fps=0.9 q=12.6 size=    1792KiB time=00:00:04.00 bitrate=3670.1kbits/s speed=0.0142x elapsed=0:04:40.85    \nframe=  243 fps=0.9 q=18.5 size=    1792KiB time=00:00:04.01 bitrate=3654.9kbits/s speed=0.0143x elapsed=0:04:41.36    \nframe=  244 fps=0.9 q=19.7 size=    1792KiB time=00:00:04.03 bitrate=3639.8kbits/s speed=0.0143x elapsed=0:04:41.91    \nframe=  244 fps=0.9 q=19.7 size=    1792KiB time=00:00:04.03 bitrate=3639.8kbits/s speed=0.0143x elapsed=0:04:42.43    \nframe=  245 fps=0.9 q=19.7 size=    1792KiB time=00:00:04.05 bitrate=3624.8kbits/s speed=0.0143x elapsed=0:04:42.94    \nframe=  246 fps=0.9 q=19.7 size=    1792KiB time=00:00:04.06 bitrate=3609.9kbits/s speed=0.0143x elapsed=0:04:43.50    \nframe=  246 fps=0.9 q=19.7 size=    1792KiB time=00:00:04.06 bitrate=3609.9kbits/s speed=0.0143x elapsed=0:04:44.03    \nframe=  246 fps=0.9 q=19.7 size=    1792KiB time=00:00:04.06 bitrate=3609.9kbits/s speed=0.0143x elapsed=0:04:44.57    \nframe=  246 fps=0.9 q=19.7 size=    1792KiB time=00:00:04.06 bitrate=3609.9kbits/s speed=0.0143x elapsed=0:04:45.10    \nframe=  247 fps=0.9 q=10.2 size=    1792KiB time=00:00:04.08 bitrate=3595.2kbits/s speed=0.0143x elapsed=0:04:45.61    \nframe=  249 fps=0.9 q=20.2 size=    1792KiB time=00:00:04.11 bitrate=3566.1kbits/s speed=0.0144x elapsed=0:04:46.13    \nframe=  250 fps=0.9 q=20.0 size=    1792KiB time=00:00:04.13 bitrate=3551.7kbits/s speed=0.0144x elapsed=0:04:46.65    \nframe=  251 fps=0.9 q=19.4 size=    1792KiB time=00:00:04.15 bitrate=3537.4kbits/s speed=0.0145x elapsed=0:04:47.17    \nframe=  252 fps=0.9 q=11.0 size=    1792KiB time=00:00:04.16 bitrate=3523.3kbits/s speed=0.0145x elapsed=0:04:47.70    \nframe=  252 fps=0.9 q=11.0 size=    1792KiB time=00:00:04.16 bitrate=3523.3kbits/s speed=0.0145x elapsed=0:04:48.23    \nframe=  252 fps=0.9 q=11.0 size=    1792KiB time=00:00:04.16 bitrate=3523.3kbits/s speed=0.0144x elapsed=0:04:48.75    \nframe=  253 fps=0.9 q=17.3 size=    1792KiB time=00:00:04.18 bitrate=3509.3kbits/s speed=0.0145x elapsed=0:04:49.26    \nframe=  254 fps=0.9 q=18.6 size=    1792KiB time=00:00:04.20 bitrate=3495.3kbits/s speed=0.0145x elapsed=0:04:49.79    \nframe=  254 fps=0.9 q=18.6 size=    1792KiB time=00:00:04.20 bitrate=3495.3kbits/s speed=0.0145x elapsed=0:04:50.32    \nframe=  255 fps=0.9 q=18.5 size=    2048KiB time=00:00:04.21 bitrate=3978.9kbits/s speed=0.0145x elapsed=0:04:50.83    \nframe=  256 fps=0.9 q=18.5 size=    2048KiB time=00:00:04.23 bitrate=3963.2kbits/s speed=0.0145x elapsed=0:04:51.34    \nframe=  256 fps=0.9 q=18.5 size=    2048KiB time=00:00:04.23 bitrate=3963.2kbits/s speed=0.0145x elapsed=0:04:51.87    \nframe=  256 fps=0.9 q=18.5 size=    2048KiB time=00:00:04.23 bitrate=3963.2kbits/s speed=0.0145x elapsed=0:04:52.41    \nframe=  256 fps=0.9 q=18.5 size=    2048KiB time=00:00:04.23 bitrate=3963.2kbits/s speed=0.0145x elapsed=0:04:52.93    \nframe=  258 fps=0.9 q=18.2 size=    2048KiB time=00:00:04.26 bitrate=3932.2kbits/s speed=0.0145x elapsed=0:04:53.45    \nframe=  259 fps=0.9 q=18.7 size=    2048KiB time=00:00:04.28 bitrate=3916.9kbits/s speed=0.0146x elapsed=0:04:53.98    \nframe=  259 fps=0.9 q=18.7 size=    2048KiB time=00:00:04.28 bitrate=3916.9kbits/s speed=0.0145x elapsed=0:04:54.50    \nframe=  259 fps=0.9 q=18.7 size=    2048KiB time=00:00:04.28 bitrate=3916.9kbits/s speed=0.0145x elapsed=0:04:55.05    \nframe=  259 fps=0.9 q=18.7 size=    2048KiB time=00:00:04.28 bitrate=3916.9kbits/s speed=0.0145x elapsed=0:04:55.59    \nframe=  259 fps=0.9 q=18.7 size=    2048KiB time=00:00:04.28 bitrate=3916.9kbits/s speed=0.0145x elapsed=0:04:56.21    \nframe=  259 fps=0.9 q=18.7 size=    2048KiB time=00:00:04.28 bitrate=3916.9kbits/s speed=0.0144x elapsed=0:04:56.86    \nframe=  259 fps=0.9 q=18.7 size=    2048KiB time=00:00:04.28 bitrate=3916.9kbits/s speed=0.0144x elapsed=0:04:57.46    \nframe=  260 fps=0.9 q=19.0 size=    2048KiB time=00:00:04.30 bitrate=3901.8kbits/s speed=0.0144x elapsed=0:04:58.03    \nframe=  260 fps=0.9 q=19.0 size=    2048KiB time=00:00:04.30 bitrate=3901.8kbits/s speed=0.0144x elapsed=0:04:58.56    \nframe=  260 fps=0.9 q=19.0 size=    2048KiB time=00:00:04.30 bitrate=3901.8kbits/s speed=0.0144x elapsed=0:04:59.16    \nframe=  260 fps=0.9 q=19.0 size=    2048KiB time=00:00:04.30 bitrate=3901.8kbits/s speed=0.0143x elapsed=0:04:59.78    \nframe=  261 fps=0.9 q=19.7 size=    2048KiB time=00:00:04.31 bitrate=3886.7kbits/s speed=0.0144x elapsed=0:05:00.33    \nframe=  261 fps=0.9 q=19.7 size=    2048KiB time=00:00:04.31 bitrate=3886.7kbits/s speed=0.0143x elapsed=0:05:00.86    \nframe=  261 fps=0.9 q=19.7 size=    2048KiB time=00:00:04.31 bitrate=3886.7kbits/s speed=0.0143x elapsed=0:05:01.41    \nframe=  261 fps=0.9 q=19.7 size=    2048KiB time=00:00:04.31 bitrate=3886.7kbits/s speed=0.0143x elapsed=0:05:01.94    \nframe=  262 fps=0.9 q=12.4 size=    2048KiB time=00:00:04.33 bitrate=3871.7kbits/s speed=0.0143x elapsed=0:05:02.47    \nframe=  263 fps=0.9 q=18.7 size=    2048KiB time=00:00:04.35 bitrate=3856.9kbits/s speed=0.0144x elapsed=0:05:03.02    \nframe=  264 fps=0.9 q=19.5 size=    2048KiB time=00:00:04.36 bitrate=3842.2kbits/s speed=0.0144x elapsed=0:05:03.54    \nframe=  265 fps=0.9 q=21.0 size=    2048KiB time=00:00:04.38 bitrate=3827.6kbits/s speed=0.0144x elapsed=0:05:04.06    \nframe=  266 fps=0.9 q=19.8 size=    2048KiB time=00:00:04.40 bitrate=3813.1kbits/s speed=0.0144x elapsed=0:05:04.59    \nframe=  266 fps=0.9 q=19.8 size=    2048KiB time=00:00:04.40 bitrate=3813.1kbits/s speed=0.0144x elapsed=0:05:05.11    \nframe=  266 fps=0.9 q=19.8 size=    2048KiB time=00:00:04.40 bitrate=3813.1kbits/s speed=0.0144x elapsed=0:05:05.63    \nframe=  268 fps=0.9 q=18.5 size=    2048KiB time=00:00:04.43 bitrate=3784.4kbits/s speed=0.0145x elapsed=0:05:06.15    \nframe=  268 fps=0.9 q=18.5 size=    2048KiB time=00:00:04.43 bitrate=3784.4kbits/s speed=0.0145x elapsed=0:05:06.65    \nframe=  269 fps=0.9 q=19.4 size=    2048KiB time=00:00:04.45 bitrate=3770.2kbits/s speed=0.0145x elapsed=0:05:07.19    \nframe=  270 fps=0.9 q=19.3 size=    2048KiB time=00:00:04.46 bitrate=3756.2kbits/s speed=0.0145x elapsed=0:05:07.71    \nframe=  271 fps=0.9 q=19.6 size=    2048KiB time=00:00:04.48 bitrate=3742.2kbits/s speed=0.0145x elapsed=0:05:08.25    \nframe=  271 fps=0.9 q=19.6 size=    2048KiB time=00:00:04.48 bitrate=3742.2kbits/s speed=0.0145x elapsed=0:05:08.80    \nframe=  271 fps=0.9 q=19.6 size=    2048KiB time=00:00:04.48 bitrate=3742.2kbits/s speed=0.0145x elapsed=0:05:09.33    \nframe=  272 fps=0.9 q=12.7 size=    2048KiB time=00:00:04.50 bitrate=3728.3kbits/s speed=0.0145x elapsed=0:05:09.87    \nframe=  273 fps=0.9 q=18.3 size=    2048KiB time=00:00:04.51 bitrate=3714.6kbits/s speed=0.0146x elapsed=0:05:10.41    \nframe=  273 fps=0.9 q=18.3 size=    2048KiB time=00:00:04.51 bitrate=3714.6kbits/s speed=0.0145x elapsed=0:05:10.94    \nframe=  274 fps=0.9 q=19.9 size=    2048KiB time=00:00:04.53 bitrate=3700.9kbits/s speed=0.0146x elapsed=0:05:11.46    \nframe=  275 fps=0.9 q=19.9 size=    2048KiB time=00:00:04.55 bitrate=3687.4kbits/s speed=0.0146x elapsed=0:05:12.00    \nframe=  275 fps=0.9 q=19.9 size=    2048KiB time=00:00:04.55 bitrate=3687.4kbits/s speed=0.0146x elapsed=0:05:12.56    \nframe=  276 fps=0.9 q=19.4 size=    2048KiB time=00:00:04.56 bitrate=3673.9kbits/s speed=0.0146x elapsed=0:05:13.09    \nframe=  276 fps=0.9 q=19.4 size=    2048KiB time=00:00:04.56 bitrate=3673.9kbits/s speed=0.0146x elapsed=0:05:13.64    \nframe=  276 fps=0.9 q=19.4 size=    2048KiB time=00:00:04.56 bitrate=3673.9kbits/s speed=0.0145x elapsed=0:05:14.18    \nframe=  276 fps=0.9 q=19.4 size=    2048KiB time=00:00:04.56 bitrate=3673.9kbits/s speed=0.0145x elapsed=0:05:14.73    \nframe=  276 fps=0.9 q=19.4 size=    2048KiB time=00:00:04.56 bitrate=3673.9kbits/s speed=0.0145x elapsed=0:05:15.24    \nframe=  277 fps=0.9 q=12.5 size=    2048KiB time=00:00:04.58 bitrate=3660.6kbits/s speed=0.0145x elapsed=0:05:15.77    \nframe=  277 fps=0.9 q=12.5 size=    2048KiB time=00:00:04.58 bitrate=3660.6kbits/s speed=0.0145x elapsed=0:05:16.29    \nframe=  277 fps=0.9 q=12.5 size=    2048KiB time=00:00:04.58 bitrate=3660.6kbits/s speed=0.0145x elapsed=0:05:16.81    \nframe=  278 fps=0.9 q=18.3 size=    2048KiB time=00:00:04.60 bitrate=3647.3kbits/s speed=0.0145x elapsed=0:05:17.38    \nframe=  278 fps=0.9 q=18.3 size=    2048KiB time=00:00:04.60 bitrate=3647.3kbits/s speed=0.0145x elapsed=0:05:17.94    \nframe=  278 fps=0.9 q=18.3 size=    2048KiB time=00:00:04.60 bitrate=3647.3kbits/s speed=0.0144x elapsed=0:05:18.54    \nframe=  278 fps=0.9 q=18.3 size=    2048KiB time=00:00:04.60 bitrate=3647.3kbits/s speed=0.0144x elapsed=0:05:19.09    \nframe=  278 fps=0.9 q=18.3 size=    2048KiB time=00:00:04.60 bitrate=3647.3kbits/s speed=0.0144x elapsed=0:05:19.68    \nframe=  279 fps=0.9 q=19.6 size=    2048KiB time=00:00:04.61 bitrate=3634.1kbits/s speed=0.0144x elapsed=0:05:20.20    \nframe=  280 fps=0.9 q=19.3 size=    2048KiB time=00:00:04.63 bitrate=3621.1kbits/s speed=0.0144x elapsed=0:05:20.75    \nframe=  281 fps=0.9 q=19.3 size=    2048KiB time=00:00:04.65 bitrate=3608.1kbits/s speed=0.0145x elapsed=0:05:21.31    \nframe=  281 fps=0.9 q=19.3 size=    2048KiB time=00:00:04.65 bitrate=3608.1kbits/s speed=0.0144x elapsed=0:05:21.87    \nframe=  281 fps=0.9 q=19.3 size=    2048KiB time=00:00:04.65 bitrate=3608.1kbits/s speed=0.0144x elapsed=0:05:22.40    \nframe=  281 fps=0.9 q=19.3 size=    2048KiB time=00:00:04.65 bitrate=3608.1kbits/s speed=0.0144x elapsed=0:05:22.92    \nframe=  281 fps=0.9 q=19.3 size=    2048KiB time=00:00:04.65 bitrate=3608.1kbits/s speed=0.0144x elapsed=0:05:23.48    \nframe=  281 fps=0.9 q=19.3 size=    2048KiB time=00:00:04.65 bitrate=3608.1kbits/s speed=0.0143x elapsed=0:05:24.05    \nframe=  281 fps=0.9 q=19.3 size=    2048KiB time=00:00:04.65 bitrate=3608.1kbits/s speed=0.0143x elapsed=0:05:24.61    \nframe=  282 fps=0.9 q=12.8 size=    2048KiB time=00:00:04.66 bitrate=3595.2kbits/s speed=0.0144x elapsed=0:05:25.14    \nframe=  282 fps=0.9 q=12.8 size=    2048KiB time=00:00:04.66 bitrate=3595.2kbits/s speed=0.0143x elapsed=0:05:25.65    \nframe=  283 fps=0.9 q=17.8 size=    2048KiB time=00:00:04.68 bitrate=3582.4kbits/s speed=0.0144x elapsed=0:05:26.19    \nframe=  283 fps=0.9 q=17.8 size=    2048KiB time=00:00:04.68 bitrate=3582.4kbits/s speed=0.0143x elapsed=0:05:26.75    \nframe=  283 fps=0.9 q=17.8 size=    2048KiB time=00:00:04.68 bitrate=3582.4kbits/s speed=0.0143x elapsed=0:05:27.34    \nframe=  283 fps=0.9 q=17.8 size=    2048KiB time=00:00:04.68 bitrate=3582.4kbits/s speed=0.0143x elapsed=0:05:27.88    \nframe=  283 fps=0.9 q=17.8 size=    2048KiB time=00:00:04.68 bitrate=3582.4kbits/s speed=0.0143x elapsed=0:05:28.44    \nframe=  285 fps=0.9 q=18.9 size=    2048KiB time=00:00:04.71 bitrate=3557.1kbits/s speed=0.0143x elapsed=0:05:28.97    \nframe=  285 fps=0.9 q=18.9 size=    2048KiB time=00:00:04.71 bitrate=3557.1kbits/s speed=0.0143x elapsed=0:05:29.49    \nframe=  285 fps=0.9 q=18.9 size=    2048KiB time=00:00:04.71 bitrate=3557.1kbits/s speed=0.0143x elapsed=0:05:30.04    \nframe=  285 fps=0.9 q=18.9 size=    2048KiB time=00:00:04.71 bitrate=3557.1kbits/s speed=0.0143x elapsed=0:05:30.62    \nframe=  285 fps=0.9 q=18.9 size=    2048KiB time=00:00:04.71 bitrate=3557.1kbits/s speed=0.0142x elapsed=0:05:31.22    \nframe=  286 fps=0.9 q=19.2 size=    2048KiB time=00:00:04.73 bitrate=3544.6kbits/s speed=0.0143x elapsed=0:05:31.80    \nframe=  286 fps=0.9 q=19.2 size=    2048KiB time=00:00:04.73 bitrate=3544.6kbits/s speed=0.0142x elapsed=0:05:32.35    \nframe=  286 fps=0.9 q=19.2 size=    2048KiB time=00:00:04.73 bitrate=3544.6kbits/s speed=0.0142x elapsed=0:05:32.90    \nframe=  286 fps=0.9 q=19.2 size=    2048KiB time=00:00:04.73 bitrate=3544.6kbits/s speed=0.0142x elapsed=0:05:33.48    \nframe=  286 fps=0.9 q=19.2 size=    2048KiB time=00:00:04.73 bitrate=3544.6kbits/s speed=0.0142x elapsed=0:05:34.04    \nframe=  286 fps=0.9 q=19.2 size=    2048KiB time=00:00:04.73 bitrate=3544.6kbits/s speed=0.0141x elapsed=0:05:34.58    \nframe=  286 fps=0.9 q=19.2 size=    2048KiB time=00:00:04.73 bitrate=3544.6kbits/s speed=0.0141x elapsed=0:05:35.13    \nframe=  288 fps=0.9 q=17.9 size=    2304KiB time=00:00:04.76 bitrate=3959.7kbits/s speed=0.0142x elapsed=0:05:35.64    \nframe=  288 fps=0.9 q=17.9 size=    2304KiB time=00:00:04.76 bitrate=3959.7kbits/s speed=0.0142x elapsed=0:05:36.19    \nframe=  289 fps=0.9 q=18.8 size=    2304KiB time=00:00:04.76 bitrate=3959.7kbits/s speed=0.0142x elapsed=0:05:36.75    \nframe=  289 fps=0.9 q=18.8 size=    2304KiB time=00:00:04.78 bitrate=3945.9kbits/s speed=0.0142x elapsed=0:05:37.29    \nframe=  289 fps=0.9 q=18.8 size=    2304KiB time=00:00:04.78 bitrate=3945.9kbits/s speed=0.0142x elapsed=0:05:37.87    \nframe=  289 fps=0.9 q=18.8 size=    2304KiB time=00:00:04.78 bitrate=3945.9kbits/s speed=0.0141x elapsed=0:05:38.44    \nframe=  289 fps=0.9 q=18.8 size=    2304KiB time=00:00:04.78 bitrate=3945.9kbits/s speed=0.0141x elapsed=0:05:39.03    \nframe=  289 fps=0.9 q=18.8 size=    2304KiB time=00:00:04.78 bitrate=3945.9kbits/s speed=0.0141x elapsed=0:05:39.64    \nframe=  289 fps=0.8 q=18.8 size=    2304KiB time=00:00:04.78 bitrate=3945.9kbits/s speed=0.0141x elapsed=0:05:40.28    \nframe=  289 fps=0.8 q=18.8 size=    2304KiB time=00:00:04.78 bitrate=3945.9kbits/s speed=0.014x elapsed=0:05:40.86    \nframe=  289 fps=0.8 q=18.8 size=    2304KiB time=00:00:04.78 bitrate=3945.9kbits/s speed=0.014x elapsed=0:05:41.42    \nframe=  289 fps=0.8 q=18.8 size=    2304KiB time=00:00:04.78 bitrate=3945.9kbits/s speed=0.014x elapsed=0:05:41.95    \nframe=  290 fps=0.8 q=18.9 size=    2304KiB time=00:00:04.80 bitrate=3932.2kbits/s speed=0.014x elapsed=0:05:42.47    \nframe=  290 fps=0.8 q=18.9 size=    2304KiB time=00:00:04.80 bitrate=3932.2kbits/s speed=0.014x elapsed=0:05:43.02    \nframe=  291 fps=0.8 q=19.2 size=    2304KiB time=00:00:04.81 bitrate=3918.6kbits/s speed=0.014x elapsed=0:05:43.56    \nframe=  292 fps=0.8 q=13.6 size=    2304KiB time=00:00:04.83 bitrate=3905.1kbits/s speed=0.014x elapsed=0:05:44.08    \nframe=  292 fps=0.8 q=13.6 size=    2304KiB time=00:00:04.83 bitrate=3905.1kbits/s speed=0.014x elapsed=0:05:44.60    \nframe=  293 fps=0.8 q=16.2 size=    2304KiB time=00:00:04.85 bitrate=3891.7kbits/s speed=0.0141x elapsed=0:05:45.12    \nframe=  293 fps=0.8 q=16.2 size=    2304KiB time=00:00:04.85 bitrate=3891.7kbits/s speed=0.014x elapsed=0:05:45.64    \nframe=  295 fps=0.9 q=18.4 size=    2304KiB time=00:00:04.88 bitrate=3865.1kbits/s speed=0.0141x elapsed=0:05:46.16    \nframe=  295 fps=0.9 q=18.4 size=    2304KiB time=00:00:04.88 bitrate=3865.1kbits/s speed=0.0141x elapsed=0:05:46.67    \nframe=  296 fps=0.9 q=15.7 size=    2304KiB time=00:00:04.90 bitrate=3852.0kbits/s speed=0.0141x elapsed=0:05:47.19    \nframe=  297 fps=0.9 q=16.3 size=    2304KiB time=00:00:04.91 bitrate=3838.9kbits/s speed=0.0141x elapsed=0:05:47.71    \nframe=  299 fps=0.9 q=15.6 size=    2304KiB time=00:00:04.95 bitrate=3813.1kbits/s speed=0.0142x elapsed=0:05:48.25    \n[mp4 @ 000001f385c3ac00] Starting second pass: moving the moov atom to the beginning of the file\n[out#0/mp4 @ 000001f385c3aac0] video:2409KiB audio:0KiB subtitle:0KiB other streams:0KiB global headers:2KiB muxing overhead: 0.277058%\nframe=  300 fps=0.9 q=17.8 Lsize=    2415KiB time=00:00:04.96 bitrate=3984.1kbits/s speed=0.0143x elapsed=0:05:48.35    \nx265 [info]: frame I:      2, Avg QP:18.97  kb/s: 10831.20\nx265 [info]: frame P:     59, Avg QP:13.67  kb/s: 11337.36\nx265 [info]: frame B:    239, Avg QP:19.33  kb/s: 2062.09 \nx265 [info]: Weighted P-Frames: Y:0.0% UV:0.0%\n\nencoded 300 frames in 348.08s (0.86 fps), 3944.69 kb/s, Avg QP:18.21\n",
  "seconds": 348.8535735607147,
  "probe_out": {}
}